<?xml version="1.0" standalone="no"?>
<!DOCTYPE svg PUBLIC "-//W3C//DTD SVG 1.1//EN" "http://www.w3.org/Graphics/SVG/1.1/DTD/svg11.dtd" >
<!--
2013-9-30: Created.
-->
<svg>
<metadata>
Created by iconfont
</metadata>
<defs>

<font id="iconfont" horiz-adv-x="1024" >
  <font-face
    font-family="iconfont"
    font-weight="500"
    font-stretch="normal"
    units-per-em="1024"
    ascent="896"
    descent="-128"
  />
    <missing-glyph />
    
    <glyph glyph-name="wodeyonghu" unicode="&#58880;" d="M520.5344 406.9316c107.1038 0 216.1113 96.5685 216.1113 198.7383S632.8469 811.8031 525.7441 811.8031c-107.0478 0-213.5919-106.4838-213.5919-208.5976C312.1522 501.0358 413.4296 406.9316 520.5344 406.9316zM139.1723 108.99159999999995c13.5564 79.8209 26.7759 76.628 53.5519 153.2551 26.7759 76.628 107.1038 102.1697 160.6557 102.1697 107.1038 0 106.6561 0 214.2075 0 88.4497 0 19.2687 0 133.8797 0 53.5519 0 107.1038-25.5427 133.8797-102.1697s26.7759-51.0854 53.5519-153.2551C920.4926-20.625499999999988 117.3822-19.11360000000002 139.1723 108.99159999999995z"  horiz-adv-x="1000" />

    
    <glyph glyph-name="menu-management" unicode="&#59100;" d="M179.8352356 223.32495116999996c-29.35409546 0-55.61828614-24.71923828-55.61828614-54.07333374s26.26419068-55.61828614 55.61828614-55.61828613 54.07333374 26.26419068 54.07333374 55.61828613S209.18933105 223.32495116999996 179.8352356 223.32495116999996zM179.8352356 489.0567627c-29.35409546 0-55.61828614-24.71923828-55.61828614-54.07333374s26.26419068-54.07333374 55.61828614-54.07333375 54.07333374 24.71923828 54.07333374 54.07333375S209.18933105 489.0567627 179.8352356 489.0567627zM377.58914185 651.27676391l468.12057495 0c27.80914307 0 50.98342896 21.62933349 50.98342895 49.43847656s-23.17428589 50.98342896-50.98342895 50.98342896L377.58914185 751.69866943c-27.80914307 0-50.98342896-23.17428589-50.98342896-50.98342895S349.77999878 651.27676391 377.58914185 651.27676391zM179.8352356 756.33352661C150.48114013 756.33352661 124.21694946 730.06933594 124.21694946 700.71524047s26.26419068-54.07333374 55.61828614-54.07333373 54.07333374 24.71923828 54.07333374 54.07333373S209.18933105 756.33352661 179.8352356 756.33352661zM845.7097168 485.96685791L377.58914185 485.96685791c-27.80914307 0-50.98342896-23.17428589-50.98342896-50.98342895s23.17428589-50.98342896 50.98342896-50.98342896l468.12057495 0c27.80914307 0 50.98342896 23.17428589 50.98342895 50.98342896S873.51885987 485.96685791 845.7097168 485.96685791zM845.7097168 220.23504637999997L377.58914185 220.23504637999997c-27.80914307 0-50.98342896-23.17428589-50.98342896-50.98342895s23.17428589-50.98342896 50.98342896-50.98342895l468.12057495 0c27.80914307 0 50.98342896 23.17428589 50.98342895 50.98342895S873.51885987 220.23504637999997 845.7097168 220.23504637999997z"  horiz-adv-x="1024" />

    
    <glyph glyph-name="state" unicode="&#58986;" d="M520.52992 372.04992000000004m-341.32992 0a33.333 33.333 0 1 1 682.65984 0 33.333 33.333 0 1 1-682.65984 0Z"  horiz-adv-x="1024" />

    
    <glyph glyph-name="start2" unicode="&#58914;" d="M803.27111111 354.50879999999995L222.98624-46.78997332999995 222.98624 755.58912Z"  horiz-adv-x="1024" />

    
    <glyph glyph-name="yuncunchu" unicode="&#59062;" d="M512.064-12.192c-208.192 0-376.896 57.984-376.896 129.472L134.784 117.28l0-203.008L135.04-85.728C140.16-155.744 306.752-212 511.68-212c204.992 0 371.584 56.256 376.64 126.272l0.832 0 0 203.008-0.32 0C888.96 45.792 720.192-12.192 512.064-12.192zM512.064 266.848c-208.192 0-376.896 57.984-376.896 129.472L134.784 396.32l0-203.008L135.04 193.312c5.056-70.016 171.712-126.272 376.64-126.272 204.992 0 371.584 56.256 376.64 126.272l0.832 0L889.152 396.384l-0.32 0C888.96 324.896 720.192 266.848 512.064 266.848zM888.96 683.168c0-0.128-0.064-0.192-0.064-0.32C888.384 754.272 719.872 812 512.064 812S135.616 754.272 135.168 682.848c0 0.128-0.064 0.192-0.064 0.32L134.784 683.168l0-203.008L135.04 480.16C140.16 410.08 306.752 353.888 511.68 353.888c204.992 0 371.584 56.256 376.64 126.272l0.832 0L889.152 683.168 888.96 683.168zM512.064 592.544c-155.264 0-281.152 43.264-281.152 96.576s125.888 96.576 281.152 96.576c155.2 0 281.088-43.264 281.088-96.576C793.152 635.808 667.264 592.544 512.064 592.544z"  horiz-adv-x="1024" />

    
    <glyph glyph-name="ruanjianguanli" unicode="&#58935;" d="M172.778666 730.197333l184.021333 0 0-184.021333-184.021333 0 0 184.021333ZM418.133333 730.197333l184.021333 0 0-184.021333-184.021333 0 0 184.021333ZM663.488 730.197333l184.021333 0 0-184.021333-184.021333 0 0 184.021333ZM172.778666 484.842667l184.021333 0 0-184.021333-184.021333 0 0 184.021333ZM418.133333 484.842667l184.021333 0 0-184.021333-184.021333 0 0 184.021333ZM172.778666 239.509333l184.021333 0 0-184.021333-184.021333 0 0 184.021333ZM727.722666 55.488 847.509333 55.488 847.509333 177.216 847.509333 239.509333 847.509333 484.842667 663.488 484.842667 663.488 239.509333 418.133333 239.509333 418.133333 55.488 663.488 55.488ZM925.845333 896 94.293333 896C40.938666 896 1.472 852.736 1.472 799.338667l0-828.010667c0-53.376 43.264-96.661333 96.661333-96.661333l827.733333 0c53.397333 0 96.661333 43.285333 96.661333 96.661333L1022.528 805.034667C1022.506666 858.432 979.242666 896 925.845333 896zM908.821333-11.626667 115.136-11.626667 115.136 782.293333l793.685333 0L908.821333-11.626667z"  horiz-adv-x="1024" />

    
    <glyph glyph-name="fuzaijunheng" unicode="&#58951;" d="M870.4 236.8c-19.2 0-38.4-6.4-57.6-12.8l-192 352c32 32 57.6 70.4 57.6 121.6 0 89.6-70.4 160-160 160s-160-76.8-160-160c0-38.4 12.8-76.8 38.4-108.8l-198.4-358.4c-12.8 0-25.6 6.4-38.4 6.4-89.6 0-160-70.4-160-160s70.4-160 160-160c76.8 0 140.8 57.6 153.6 134.4h396.8c12.8-76.8 76.8-134.4 153.6-134.4 89.6 0 160 70.4 160 160s-64 160-153.6 160v0zM454.4 550.4c19.2-12.8 44.8-12.8 64-12.8 12.8 0 32 0 44.8 6.4l198.4-352c-19.2-19.2-32-44.8-38.4-76.8h-403.2c-6.4 38.4-32 70.4-57.6 89.6l192 345.6z"  horiz-adv-x="1024" />

    
    <glyph glyph-name="xitongshezhi2" unicode="&#58937;" d="M512.099772 429.580105c-36.277228 0-65.673745-29.396517-65.673745-65.652256 0-36.297694 29.396517-65.713654 65.673745-65.713654 36.297694 0 65.693188 29.41596 65.693188 65.713654C577.79296 400.184611 548.396443 429.580105 512.099772 429.580105zM819.658544 568.118368 542.141996 718.977237c-9.402137 5.108345-19.72218 7.67275-30.042223 7.67275-10.340509 0-20.682042-2.564405-30.063713-7.67275L204.476533 568.034457c-20.911262-11.341303-33.982976-33.607422-33.982976-57.875129l0-292.62771c0-24.24724 13.071713-46.514383 34.004465-57.896618l277.538037-150.83738c9.381671-5.108345 19.72218-7.67275 30.042223-7.67275 10.340509 0 20.640086 2.564405 30.063713 7.67275L819.680033 159.697421c20.912285 11.404748 33.983999 33.649378 33.983999 57.917084L853.664032 510.243239C853.664032 534.489456 840.591295 556.755576 819.658544 568.118368zM682.870134 350.711849c0-7.215332-5.900384-13.114692-13.134135-13.114692l-15.761985 0c-7.191796 0-14.886035-5.67014-17.033955-12.529361l-9.06854-22.01541c-3.3984-6.379291-2.001587-15.802918 3.086291-20.912285l11.174504-11.154038c5.129834-5.128811 5.129834-13.46671 0-18.59552L623.555214 233.792976c-5.107321-5.108345-13.489222-5.108345-18.596544 0l-11.154038 11.195993c-5.107321 5.086855-14.530948 6.483668-20.869307 3.044336l-22.037922-9.05012c-6.858198-2.166339-12.550851-9.819646-12.550851-17.032932l0-15.741519c0-7.213285-5.92085-13.133112-13.135158-13.133112l-26.247804 0c-7.255241 0-13.176091 5.919826-13.176091 13.133112l0 15.741519c0 7.213285-5.629207 14.865569-12.551874 17.032932l-22.016433 9.05012c-6.337335 3.439332-15.740496 2.042519-20.806885-3.044336l-11.216459-11.195993c-5.128811-5.108345-13.468756-5.108345-18.576077 0l-18.61701 18.597567c-5.087878 5.128811-5.087878 13.46671 0 18.59552l11.174504 11.154038c5.128811 5.108345 6.525624 14.531971 3.106758 20.912285l-9.091052 22.01541c-2.105964 6.859221-9.756201 12.529361-16.990976 12.529361l-15.782451 0c-7.214309 0-13.135158 5.942339-13.135158 13.154601l0 26.269293c0 7.234775 5.92085 13.155624 13.135158 13.155624l15.782451-0.021489c7.234775 0 14.886035 5.649674 17.033955 12.550851l9.049097 22.016433c3.439332 6.379291 2.064009 15.760962-3.106758 20.869307l-11.133571 11.195993c-5.128811 5.086855-5.128811 13.467733 0 18.596544l18.576077 18.554588c5.107321 5.108345 13.44829 5.108345 18.576077 0l11.216459-11.154038c5.087878-5.149277 14.46955-6.525624 20.84884-3.106758l21.974477 9.048073c6.922666 2.146896 12.551874 9.79918 12.551874 17.054421l0 15.760962c0 7.213285 5.92085 13.176091 13.176091 13.176091l26.247804 0c7.214309 0 13.135158-5.962805 13.135158-13.176091l0-15.760962c0-7.255241 5.692652-14.906501 12.550851-17.054421l21.995967-9.048073c6.358825-3.418866 15.760962-2.022053 20.869307 3.106758l11.195993 11.154038c5.107321 5.108345 13.489222 5.108345 18.596544 0l18.576077-18.554588c5.129834-5.128811 5.129834-13.509688 0-18.638499l-11.174504-11.154038c-5.087878-5.107321-6.484691-14.488992-3.064802-20.869307l9.048073-21.994943c2.14792-6.922666 9.82067-12.550851 17.033955-12.550851l15.761985 0c7.233752 0 13.134135-5.92085 13.134135-13.155624L682.871157 350.711849z"  horiz-adv-x="1024" />

    
    <glyph glyph-name="username" unicode="&#58979;" d="M505.78862891 780.42726709c110.70808417 0 200.44667549-88.27883877 200.44667548-197.15529375 0-108.90491221-89.73859043-197.18375098-200.44667548-197.18375097s-200.44667549 88.27883877-200.44667549 197.18375097S395.11110958 780.42726709 505.78862891 780.42726709L505.78862891 780.42726709zM505.78862891 780.42726709c110.70808417 0 200.44667549-88.27883877 200.44667548-197.15529375 0-108.90491221-89.73859043-197.18375098-200.44667548-197.18375097s-200.44667549 88.27883877-200.44667549 197.18375097S395.11110958 780.42726709 505.78862891 780.42726709L505.78862891 780.42726709zM430.62560441 320.35087852000004l167.07455507 0c143.00708379 0 258.92179453-113.9973583 258.92179453-254.67516211l0-16.40508839c0-55.4379205-115.94018145-57.54762334-258.92179454-57.54762333l-167.07455508 0c-143.01270528 0-258.92179453 0.08343984-258.92179452 57.54762333l0 16.40508839C171.70380987 206.35352021000006 287.61272334 320.35087852000004 430.62560441 320.35087852000004L430.62560441 320.35087852000004z"  horiz-adv-x="1024" />

    
    <glyph glyph-name="jiqun20" unicode="&#59431;" d="M891.6875 721.5L891.6875 763.6875 554.1875 763.6875 554.1875 594.9375 469.8125 594.9375 469.8125 763.6875 132.3125 763.6875 132.3125 721.5 427.625 721.5 427.625 594.9375 343.25 594.9375 343.25 637.125 132.3125 637.125 132.3125 594.9375 132.3125 468.375 216.6875 468.375 216.6875 384 132.3125 384 132.3125 341.8125 132.3125 299.625 216.6875 299.625 174.5 341.8125 216.6875 341.8125 216.6875 299.625 216.6875 88.6875 469.8125 88.6875 427.625 46.5 596.375 46.5 554.1875 88.6875 807.3125 88.6875 807.3125 299.625 807.3125 341.8125 849.5 341.8125 807.3125 299.625 891.6875 299.625 891.6875 341.8125 891.6875 384 807.3125 384 807.3125 468.375 836.84375 468.375 891.6875 468.375 891.6875 594.9375 891.6875 637.125 680.75 637.125 680.75 594.9375 596.375 594.9375 596.375 721.5 891.6875 721.5 891.6875 721.5ZM680.75 552.75L765.125 552.75 765.125 468.375 765.125 384 765.125 341.8125 765.125 130.875 512 130.875 258.875 130.875 258.875 341.8125 258.875 384 258.875 468.375 258.875 552.75 343.25 552.75 427.625 552.75 469.8125 552.75 554.1875 552.75 596.375 552.75 680.75 552.75 680.75 552.75ZM343.25 464.15625l337.5 0 0-253.125-337.5 0 0 253.125Z"  horiz-adv-x="1024" />

    
    <glyph glyph-name="loufang" unicode="&#58959;" d="M1007.282372-40.600731 957.286301-40.600731 957.286301 579.327649C957.286301 595.991365 948.439172 611.400694 934.055192 619.791782L680.274007 767.854026C665.80191 776.301714 647.918271 776.358313 633.389622 768.004078 618.866232 759.648529 609.907317 744.157592 609.907317 727.389893L609.907317-40.600731 556.683825-40.600731 556.683825 849.164007C556.683825 864.907664 548.771782 879.60227 535.635893 888.271087 522.500007 896.93464 505.890763 898.41542 491.434449 892.20404L94.839288 721.889287C77.644796 714.50513 66.496126 697.574215 66.496126 678.847938L66.496126-40.600731 16.678918-40.600731C7.520095-40.600731 0.095978-48.029642 0.095978-57.192052L0.095978-111.174066C0.095978-120.336476 7.520095-127.765387 16.678918-127.765387L1007.282372-127.765387C1016.437249-127.765387 1023.861365-120.336476 1023.861365-111.174066L1023.861365-57.192052C1023.861365-48.029642 1016.437249-40.600731 1007.282372-40.600731L1007.282372-40.600731ZM739.184278 600.150713C739.184278 609.318387 746.607081 616.748614 755.767219 616.748614L808.440968 616.748614C817.601107 616.748614 825.023909 609.318387 825.023909 600.150713L825.023909 547.429664C825.023909 538.267254 817.601107 530.837027 808.440968 530.837027L755.767219 530.837027C746.607081 530.837027 739.184278 538.267254 739.184278 547.429664L739.184278 600.150713 739.184278 600.150713ZM739.184278 467.400395C739.184278 476.568071 746.607081 483.996982 755.767219 483.996982L808.440968 483.996982C817.601107 483.996982 825.023909 476.568071 825.023909 467.400395L825.023909 414.678032C825.023909 405.515622 817.601107 398.086711 808.440968 398.086711L755.767219 398.086711C746.607081 398.086711 739.184278 405.515622 739.184278 414.678032L739.184278 467.400395 739.184278 467.400395ZM739.184278 334.654028C739.184278 343.816439 746.607081 351.246665 755.767219 351.246665L808.440968 351.246665C817.601107 351.246665 825.023909 343.816439 825.023909 334.654028L825.023909 281.932982C825.023909 272.765306 817.601107 265.335079 808.440968 265.335079L755.767219 265.335079C746.607081 265.335079 739.184278 272.765306 739.184278 281.932982L739.184278 334.654028 739.184278 334.654028ZM739.184278 201.903712C739.184278 211.071388 746.607081 218.500299 755.767219 218.500299L808.440968 218.500299C817.601107 218.500299 825.023909 211.071388 825.023909 201.903712L825.023909 149.18135C825.023909 140.018937 817.601107 132.584763 808.440968 132.584763L755.767219 132.584763C746.607081 132.584763 739.184278 140.018937 739.184278 149.18135L739.184278 201.903712 739.184278 201.903712ZM739.184278 69.15208C739.184278 78.319754 746.607081 85.749983 755.767219 85.749983L808.440968 85.749983C817.601107 85.749983 825.023909 78.319754 825.023909 69.15208L825.023909 16.431033C825.023909 7.268621 817.601107-0.161606 808.440968-0.161606L755.767219-0.161606C746.607081-0.161606 739.184278 7.268621 739.184278 16.431033L739.184278 69.15208 739.184278 69.15208ZM347.855046 732.902345C347.855046 742.064755 355.277848 749.49893 364.437985 749.49893L417.116997 749.49893C426.277134 749.49893 433.699936 742.064755 433.699936 732.902345L433.699936 680.179982C433.699936 671.012306 426.277134 663.583395 417.116997 663.583395L364.437985 663.583395C355.277848 663.583395 347.855046 671.012306 347.855046 680.179982L347.855046 732.902345 347.855046 732.902345ZM347.855046 600.150713C347.855046 609.318387 355.277848 616.748614 364.437985 616.748614L417.116997 616.748614C426.277134 616.748614 433.699936 609.318387 433.699936 600.150713L433.699936 547.429664C433.699936 538.267254 426.277134 530.837027 417.116997 530.837027L364.437985 530.837027C355.277848 530.837027 347.855046 538.267254 347.855046 547.429664L347.855046 600.150713 347.855046 600.150713ZM347.855046 467.400395C347.855046 476.568071 355.277848 483.996982 364.437985 483.996982L417.116997 483.996982C426.277134 483.996982 433.699936 476.568071 433.699936 467.400395L433.699936 414.678032C433.699936 405.515622 426.277134 398.086711 417.116997 398.086711L364.437985 398.086711C355.277848 398.086711 347.855046 405.515622 347.855046 414.678032L347.855046 467.400395 347.855046 467.400395ZM347.855046 334.654028C347.855046 343.816439 355.277848 351.246665 364.437985 351.246665L417.116997 351.246665C426.277134 351.246665 433.699936 343.816439 433.699936 334.654028L433.699936 281.932982C433.699936 272.765306 426.277134 265.335079 417.116997 265.335079L364.437985 265.335079C355.277848 265.335079 347.855046 272.765306 347.855046 281.932982L347.855046 334.654028 347.855046 334.654028ZM347.855046 201.903712C347.855046 211.071388 355.277848 218.500299 364.437985 218.500299L417.116997 218.500299C426.277134 218.500299 433.699936 211.071388 433.699936 201.903712L433.699936 149.18135C433.699936 140.018937 426.277134 132.584763 417.116997 132.584763L364.437985 132.584763C355.277848 132.584763 347.855046 140.018937 347.855046 149.18135L347.855046 201.903712 347.855046 201.903712ZM347.855046 69.15208C347.855046 78.319754 355.277848 85.749983 364.437985 85.749983L417.116997 85.749983C426.277134 85.749983 433.699936 78.319754 433.699936 69.15208L433.699936 16.431033C433.699936 7.268621 426.277134-0.161606 417.116997-0.161606L364.437985-0.161606C355.277848-0.161606 347.855046 7.268621 347.855046 16.431033L347.855046 69.15208 347.855046 69.15208ZM188.164847 600.150713C188.164847 609.318387 195.588965 616.748614 204.747788 616.748614L257.426798 616.748614C266.581675 616.748614 274.009737 609.318387 274.009737 600.150713L274.009737 547.429664C274.009737 538.267254 266.581675 530.837027 257.426798 530.837027L204.747788 530.837027C195.588965 530.837027 188.164847 538.267254 188.164847 547.429664L188.164847 600.150713 188.164847 600.150713ZM188.164847 467.400395C188.164847 476.568071 195.588965 483.996982 204.747788 483.996982L257.426798 483.996982C266.581675 483.996982 274.009737 476.568071 274.009737 467.400395L274.009737 414.678032C274.009737 405.515622 266.581675 398.086711 257.426798 398.086711L204.747788 398.086711C195.588965 398.086711 188.164847 405.515622 188.164847 414.678032L188.164847 467.400395 188.164847 467.400395ZM188.164847 334.654028C188.164847 343.816439 195.588965 351.246665 204.747788 351.246665L257.426798 351.246665C266.581675 351.246665 274.009737 343.816439 274.009737 334.654028L274.009737 281.932982C274.009737 272.765306 266.581675 265.335079 257.426798 265.335079L204.747788 265.335079C195.588965 265.335079 188.164847 272.765306 188.164847 281.932982L188.164847 334.654028 188.164847 334.654028ZM188.164847 201.903712C188.164847 211.071388 195.588965 218.500299 204.747788 218.500299L257.426798 218.500299C266.581675 218.500299 274.009737 211.071388 274.009737 201.903712L274.009737 149.18135C274.009737 140.018937 266.581675 132.584763 257.426798 132.584763L204.747788 132.584763C195.588965 132.584763 188.164847 140.018937 188.164847 149.18135L188.164847 201.903712 188.164847 201.903712ZM188.164847 69.15208C188.164847 78.319754 195.588965 85.749983 204.747788 85.749983L257.426798 85.749983C266.581675 85.749983 274.009737 78.319754 274.009737 69.15208L274.009737 16.431033C274.009737 7.268621 266.581675-0.161606 257.426798-0.161606L204.747788-0.161606C195.588965-0.161606 188.164847 7.268621 188.164847 16.431033L188.164847 69.15208 188.164847 69.15208Z"  horiz-adv-x="1024" />

    
    <glyph glyph-name="caozuo" unicode="&#59166;" d="M65.086 72.984c0.031 36.915 14.449 71.617 40.59 97.718l205.677 205.35-1.404 3.937c-12.75 35.741-19.198 73.189-19.163 111.309 0.159 182.735 148.953 331.269 331.689 331.113 45.492-0.039 89.727-9.244 131.475-27.359l12.927-5.605c0.571-0.467 1.221-0.852 1.946-1.124 1.909-0.7 3.571-1.765 5.019-3.205 2.53-2.537 3.935-5.934 3.931-9.542-0.002-3.607-1.413-7.002-3.969-9.556-0.637-0.639-1.15-1.355-1.53-2.138l-189.092-188.747 123.045-123.275 193.077 192.735c0.441 0.272 0.854 0.597 1.238 0.979 4.117 4.102 10.807 4.114 14.912 0.014 0.954-0.962 1.705-2.053 2.221-3.244l1.267-2.698 7.507-17.387c18.047-41.782 27.174-86.038 27.136-131.538-0.159-182.736-148.953-331.269-331.689-331.113-38.157 0.035-75.589 6.543-111.254 19.355l-3.933 1.41-205.702-205.35c-53.955-53.828-141.659-53.77-195.504 0.14-26.094 26.143-40.45 60.873-40.417 97.788l0.001 0.029zM141.827 134.487c-16.463-16.402-25.547-38.261-25.566-61.547-0.019-23.28 9.018-45.153 25.46-61.621 33.927-33.953 89.167-33.985 123.135-0.076l230.001 229.6 15.97-6.914c35.238-15.318 72.622-23.106 111.116-23.139 154.515-0.133 280.331 125.462 280.463 279.977 0.018 21.338-2.387 42.609-7.143 63.231l-2.676 11.596-178.007-177.715c-5.42-4.065-12.9-3.671-17.534 0.975l-3.317 3.113-175.303 175.604c-1.581 2.274-2.411 4.886-2.41 7.599 0.002 2.868 0.935 5.601 2.701 7.931l178.499 178.154-11.573 2.706c-20.546 4.802-41.813 7.25-63.212 7.269-154.518 0.133-280.337-125.462-280.471-279.974-0.035-38.446 7.687-75.855 22.956-111.193l6.879-15.97-229.971-229.607zM141.827 134.487z"  horiz-adv-x="1024" />

    
    <glyph glyph-name="admin-delete" unicode="&#58929;" d="M884.42219815 52.522541599999954l-49.08601934 49.27938838 47.15592802 47.54176699c13.07803271 13.21474043 13.07803271 34.64091386 0 47.8556543-13.06993886 13.22283516-34.2550749 13.22283516-47.33310849 0l-47.08397725-47.9599831-48.38629395 48.57156826c-13.06993886 13.21474043-33.52297148 13.95493857-46.59291034 0.73210341-13.07803271-13.19855097-13.07803271-34.64091386 0-47.85565429l48.30624843-48.98978526L693.6993081 53.101748730000054c-13.06993886-13.21474043-13.81013701-33.89352011-0.74019814-47.10736142 13.07803271-13.21474043 34.26316963-13.21474043 47.34120234 0l47.87184288 48.26577568 48.91693446-49.60946513c13.05374942-13.21474043 34.2550749-13.21474043 47.33310851 0C897.49213613 17.86543916000005 897.49213613 39.30780116999995 884.42219815 52.522541599999954zM688.19953643 259.13855624999997c0 10.44821602-5.98544209 18.94835302-13.68242315 25.2144044l-1.01721006 0.73660078c-19.826158 14.30030479-40.60566914 26.15066982-63.11740605 36.16448027 65.33260488 44.30845898 108.37112432 119.60720596 108.37112431 205.12752363 0 136.3439584-109.31998096 246.87901582-244.16015976 246.87901582S230.44049756 662.72642373 230.44049756 526.3815653300001c0-85.09490596 42.59512089-160.11933926 107.38179492-204.50874287-112.85908154-49.40800136-194.4625544-157.34472011-207.9588041-286.40181973l-0.08814023-4.03736309c0-18.43480107 15.57114258-33.3700752 34.7776207-33.37007519 19.20647813 0 34.76143213 14.93617325 34.76143212 33.37007519l-0.07285078 1.39585343 0.01439034 0.27611279c16.80960323 137.69574258 130.60315107 244.48304092 270.72814658 246.85563164 1.56853653-0.03237802 3.03184424-0.46678359 4.60847549-0.46678359 1.17460371 0 2.25207334 0.33007588 3.41858232 0.34626533 57.68419042-0.77977089 110.27693232-18.77207256 154.15997959-49.99530322 5.90359746-4.15788135 12.31355127-8.02705781 20.19580752-8.02705782 19.665167 0 35.86048682 15.4317375 35.86048682 34.28475469L688.19953643 259.13855624999997zM478.75134219 350.81969647999995c-1.38326221 0.01618945-2.67838418 0.3381706-4.06164639 0.33817061-1.39945078 0-2.70266748-0.37774424-4.10211914-0.39393281-94.38380771 2.24397862-170.44613789 79.56905185-170.44613789 175.54568027 0 97.38417393 78.07336612 176.33444502 174.38726514 176.33444502s174.39535987-78.94937198 174.39535986-176.33444502C648.92406552 430.42922109 572.99844307 353.22466612000005 478.75134219 350.81969647999995z"  horiz-adv-x="1024" />

    
    <glyph glyph-name="admin-add" unicode="&#58931;" d="M701.8405877 273.82829647999995c0 10.44821602-5.98544209 18.94835302-13.68242315 25.2144044l-1.01721006 0.73660078c-19.826158 14.30030479-40.60566914 26.15066982-63.11740605 36.16448027 65.33260488 44.30845898 108.37112432 119.60720596 108.37112432 205.12752364 0 136.3439584-109.31998096 246.87901582-244.16015977 246.87901581S244.08154883 677.41616396 244.08154883 541.07130557c0-85.09490596 42.59512089-160.11933926 107.38179492-204.50874288-112.85908154-49.40800136-194.4625544-157.34472011-207.95880411-286.40181972l-0.08814022-4.03736309c0-18.43480107 15.57114258-33.3700752 34.7776207-33.37007519s34.76143213 14.93617325 34.76143212 33.37007519l-0.07285078 1.39585342 0.01439034 0.27611279c16.80960323 137.69574258 130.60315107 244.48304092 270.72814658 246.85563164 1.56853653-0.03237802 3.03184424-0.46678359 4.60847548-0.46678359 1.17460371 0 2.25207334 0.33007588 3.41858233 0.34626533 57.68419042-0.77977089 110.27693232-18.77207256 154.15997959-49.99530322 5.90359746-4.15788135 12.31355127-8.02705781 20.19580752-8.02705781 19.665167 0 35.86048682 15.4317375 35.86048681 34.28475468L701.8405877 273.82829647999995zM492.39239434 365.50943672000005c-1.38326221 0.01618945-2.67838418 0.3381706-4.06164639 0.3381706-1.39945078 0-2.70266748-0.37774424-4.10211914-0.39393281-94.38380771 2.24397862-170.44613789 79.56905185-170.44613789 175.54568028 0 97.38417393 78.07336612 176.33444502 174.38726513 176.33444502s174.39535987-78.94937198 174.39535987-176.33444502C662.5651168 445.11896133 586.63949433 367.91440635000004 492.39239434 365.50943672000005zM885.22355411 143.36095312999998l-56.29013526 0.11062529-0.22035059 54.1909582c-0.07824727 15.04589854-12.33963369 27.30728584-27.38553222 27.38553223-15.04589854 0.08724112-27.16967901-12.03564023-27.08693526-27.08693526l0.50096075-54.38972372-55.48428194 0.10612792c-15.04140205 0.08274375-27.16967901-11.19830713-27.08243789-26.24420654 0.06925342-15.03690469 12.33963369-27.30728584 27.38553223-27.38553223l55.67855009-0.39123457 0.51085371-55.10743682c0.08274375-15.04140205 11.49240849-27.298292 26.53380967-27.38103573 15.04589854-0.07824727 27.16967901 12.04463408 27.09143174 27.09143173l-0.22574707 55.0148001 56.38187285-0.39663105c15.0324082-0.0917376 27.16518164 12.04013672 27.08693526 27.08693524C912.53533731 131.00782911 900.26495615 143.27820938000002 885.22355411 143.36095312999998z"  horiz-adv-x="1024" />

    
    <glyph glyph-name="cloud-server" unicode="&#58960;" d="M750.292198 540.143223c-52.77804 93.527117-151.083997 151.206794-258.972193 151.206794-71.906703 0-141.308353-26.01449-195.415668-73.255421-49.140187-42.896996-82.717933-100.576673-95.756901-163.884534-77.213569-22.243607-131.558291-93.233428-131.558291-175.134763 0-90.665952 67.403133-168.640861 154.716734-182.059476l510.539742-0.230244c122.418121 0 222.013443 99.595322 222.013443 222.013443C955.85804 435.686173 865.054965 531.6907140000001 750.292198 540.143223L750.292198 540.143223zM750.292198 540.143223M659.889235 156.34302300000002L364.535437 156.34302300000002c-17.641799 0-31.930223 12.429077-31.930223 29.628808L332.605214 220.43064400000003c0 17.164938 14.288424 29.596062 31.930223 29.596062l295.364031 0c17.641799 0 31.942503-12.431124 31.942503-29.596062l0-34.458813C691.829691 168.77210100000002 677.541267 156.34302300000002 659.889235 156.34302300000002L659.889235 156.34302300000002zM624.215758 225.66587900000002c-12.726859 0-23.115464-10.041704-23.115464-22.469758 0-12.429077 10.388605-22.493294 23.115464-22.493294 12.737092 0 23.113417 10.07445 23.113417 22.493294C647.329175 215.61394199999995 636.96513 225.66587900000002 624.215758 225.66587900000002L624.215758 225.66587900000002zM659.889235 272.43711199999996L364.535437 272.43711199999996c-17.641799 0-31.930223 12.420891-31.930223 29.595039L332.605214 336.514499c0 17.166985 14.288424 29.596062 31.930223 29.596062l295.364031 0c17.641799 0 31.942503-12.418844 31.942503-29.596062l0-34.482349C691.829691 284.856979 677.541267 272.43711199999996 659.889235 272.43711199999996L659.889235 272.43711199999996zM624.215758 341.75996699999996c-12.726859 0-23.115464-10.07445-23.115464-22.528086 0-12.393261 10.388605-22.502503 23.115464-22.502503 12.737092 0 23.113417 10.109242 23.113417 22.502503C647.341454 331.67630699999995 636.96513 341.75996699999996 624.215758 341.75996699999996L624.215758 341.75996699999996zM659.889235 388.441149L364.535437 388.441149c-17.641799 0-31.930223 12.476149-31.930223 29.630854l0 34.434254c0 17.199731 14.288424 29.677926 31.930223 29.677926l295.364031 0c17.641799 0 31.942503-12.475126 31.942503-29.677926l0-34.447557C691.829691 400.916275 677.541267 388.441149 659.889235 388.441149L659.889235 388.441149zM601.100294 435.294247c0-12.418844 10.388605-22.467711 23.113417-22.467711 12.739139 0 23.115464 10.050913 23.115464 22.467711 0 12.418844-10.364045 22.493294-23.115464 22.493294C611.488899 457.786517 601.100294 447.712067 601.100294 435.294247L601.100294 435.294247zM601.100294 435.294247"  horiz-adv-x="1024" />

    
    <glyph glyph-name="my-plan" unicode="&#59022;" d="M722.68459464-8.847969929999977c-101.34583648 0-183.48659998 82.13997557-183.48659997 183.48659998 0 101.33244252 82.14076349 183.49999394 183.48659997 183.49999393 101.34662441 0 183.49999394-82.16755142 183.49999394-183.49999393C906.18458781 73.29200563999996 824.01782509-8.847969929999977 722.68459464-8.847969929999977L722.68459464-8.847969929999977 722.68459464-8.847969929999977zM851.81381134 167.84248026c0 7.50286818-6.1020382 13.59230035-13.59230034 13.59230034L743.05965082 181.43478059999995 743.05965082 262.97676382c0 7.51626137-6.07525106 13.59230035-13.57890639 13.59230034L715.88844409 276.56906416000004c-7.51704929 0-13.59230035-6.07603898-13.59230035-13.59230034l0-108.74076657c0-7.50365533 6.07525106-13.59308827 13.59230034-13.59308827l13.59230034 0 108.74076657 0c7.50365533 0 13.59230035 6.10361406 13.59230035 13.59308827L851.81381134 167.84248026 851.81381134 167.84248026 851.81381134 167.84248026zM516.4309698 290.17475847000003L267.33386695 290.17475847000003c-22.53696677 0-40.79187008-18.25490333-40.7918701-40.76350707l0-13.59230035c0-22.53696677 18.25490333-40.79187008 40.7918701-40.7918701l218.16067488 0c-0.29939014-4.51290868-0.69253572-8.9982415-0.69253572-13.57890638 0-59.18149944 25.34965611-112.27435464 65.59789762-149.53184873L226.54199686 31.91632506999997c-60.03870006 0-108.7273726 48.67527858-108.7273726 108.74076657L117.81462426 670.76704594c0 60.06548722 48.70206574 108.7273726 108.7273726 108.7273726l312.64260384 0L539.1846007 697.95243457c0-60.06470006 48.67527858-108.75415975 108.7273726-108.75415977l108.74076655 0 0-215.72773793c-21.28583187 7.54383723-44.09382577 11.85268781-67.96228967 11.85268782C616.11913186 385.33661788 552.55944899 347.29125601 516.4309698 290.17475847000003L516.4309698 290.17475847000003 516.4309698 290.17475847000003zM634.33306614 439.70739513c0 22.50860376-18.25411617 40.76350708-40.77768897 40.76350707L267.33386695 480.4709022c-22.53696677 0-40.79187008-18.25490333-40.7918701-40.76350707l0-13.59230036c0-22.53696677 18.25490333-40.76508293 40.7918701-40.76508293l326.22151099 0c22.52357279-0.01339396 40.77768897 18.21472221 40.77768898 40.75011312L634.33306614 439.70739513 634.33306614 439.70739513 634.33306614 439.70739513zM729.49413839 629.9893577299999L607.16107148 629.9893577299999c-15.01991748 0-27.19799467 12.16625908-27.19799466 27.18617655L579.9630776 779.5078125l40.76350708 0 135.92536649-122.33306614C756.66534513 642.15561682 744.5006619 629.9893577299999 729.49413839 629.9893577299999L729.49413839 629.9893577299999 729.49413839 629.9893577299999z"  horiz-adv-x="1024" />

    
    <glyph glyph-name="xitongyuzhishitu" unicode="&#58962;" d="M938.666667-85.333333 85.333333-85.333333C61.76-85.333333 42.666667-66.218667 42.666667-42.666667L42.666667 810.666667C42.666667 834.24 61.76 853.333333 85.333333 853.333333L938.666667 853.333333C962.218667 853.333333 981.333333 834.24 981.333333 810.666667L981.333333-42.666667C981.333333-66.218667 962.218667-85.333333 938.666667-85.333333ZM896 725.333333C896 748.906667 876.885333 768 853.333333 768L170.666667 768C147.093333 768 128 748.906667 128 725.333333L128 597.333333 896 597.333333 896 725.333333ZM896 512 128 512 128 42.666667C128 19.114667 147.093333 0 170.666667 0L853.333333 0C876.885333 0 896 19.114667 896 42.666667L896 512ZM554.666667 234.666667 853.333333 234.666667 853.333333 21.333333 554.666667 21.333333 554.666667 234.666667ZM554.666667 490.666667 853.333333 490.666667 853.333333 277.333333 554.666667 277.333333 554.666667 490.666667ZM170.666667 234.666667 469.333333 234.666667 469.333333 21.333333 170.666667 21.333333 170.666667 234.666667ZM170.666667 490.666667 469.333333 490.666667 469.333333 277.333333 170.666667 277.333333 170.666667 490.666667ZM554.666667 725.333333C578.218667 725.333333 597.333333 706.24 597.333333 682.666667 597.333333 659.114667 578.218667 640 554.666667 640 531.093333 640 512 659.114667 512 682.666667 512 706.24 531.093333 725.333333 554.666667 725.333333ZM682.666667 725.333333C706.218667 725.333333 725.333333 706.24 725.333333 682.666667 725.333333 659.114667 706.218667 640 682.666667 640 659.093333 640 640 659.114667 640 682.666667 640 706.24 659.093333 725.333333 682.666667 725.333333ZM810.666667 725.333333C834.218667 725.333333 853.333333 706.24 853.333333 682.666667 853.333333 659.114667 834.218667 640 810.666667 640 787.093333 640 768 659.114667 768 682.666667 768 706.24 787.093333 725.333333 810.666667 725.333333Z"  horiz-adv-x="1024" />

    
    <glyph glyph-name="chart18" unicode="&#58999;" d="M512 896C229.232 896 0 666.768 0 384s229.232-512 512-512 512 229.232 512 512S794.768 896 512 896zM512-32C282.256-32 96 154.256 96 384 96 613.744 282.256 800 512 800l0-416 294.16 294.16C881.44 602.88 928 498.88 928 384 928 154.256 741.744-32 512-32z"  horiz-adv-x="1024" />

    
    <glyph glyph-name="chart78" unicode="&#59007;" d="M512 896c-282.768 0-512-229.232-512-512s229.232-512 512-512 512 229.232 512 512-229.232 512-512 512zM512 384l-294.16 294.16c75.28 75.28 179.28 121.84 294.16 121.84v-416z"  horiz-adv-x="1024" />

    
    <glyph glyph-name="node" unicode="&#59519;" d="M793.30625 384c-23.175 0-44.6625-7.03125-62.60625-19.06875l-115.5375 126.5625C655.1 527.55 680.75 579.1875 680.75 637.125 680.75 745.6875 592.4375 834 483.875 834S287 745.6875 287 637.125c0-55.85625 23.625-106.0875 61.14375-141.975L229.68125 368.92499999999995C213.3125 378.26250000000005 194.6375 384 174.5 384c-62.04375 0-112.5-50.45625-112.5-112.5s50.45625-112.5 112.5-112.5 112.5 50.45625 112.5 112.5c0 21.4875-6.35625 41.34375-16.81875 58.44375l124.48125 132.69375C413.5625 452.90625 433.98125 446.26875 455.75 443.11875l0-231.8625c-48.375-12.6-84.375-56.25-84.375-108.50625 0-62.04375 50.45625-112.5 112.5-112.5s112.5 50.45625 112.5 112.5c0 52.25625-36 95.90625-84.375 108.50625L512 443.11875C531.74375 445.9875 550.53125 451.5 567.9125 459.825l125.55-137.475C685.5875 306.99375 680.75 289.89374999999995 680.75 271.5c0-62.04375 50.45625-112.5 112.55625-112.5C855.35 159 905.75 209.45624999999995 905.75 271.5S855.35 384 793.30625 384zM483.875 496.5C406.30625 496.5 343.25 559.55625 343.25 637.125S406.30625 777.75 483.875 777.75 624.5 714.69375 624.5 637.125 561.44375 496.5 483.875 496.5z"  horiz-adv-x="1024" />

    
    <glyph glyph-name="206" unicode="&#58919;" d="M510.815 834c-250.17 0-448.815-201.525-448.815-450s201.45-450 449.955-450c248.49 0 450.045 201.435 450.045 450 0 248.475-201.105 450-451.185 450v0 0M798.335 505.365c0 0-274.23-290.13-309.285-325.185-24.84-24.84-55.68-16.29-68.715-3.345l-195.81 179.34c-18.060 18.93-18.060 49.68 0 68.61s47.22 18.93 65.28 0l162.18-145.68c0 0.27 281.085 294.885 281.085 294.885 18.060 18.93 47.22 18.93 65.28 0 18.045-18.945 18.045-49.68-0.015-68.625v0 0M798.335 505.365z"  horiz-adv-x="1024" />

    
    <glyph glyph-name="implement" unicode="&#58906;" d="M517.920338 628.074901c-3.203972 1.839905-6.704702 2.715855-10.1645 2.715855-7.081279 0-13.995759-3.660366-17.806551-10.199293l-77.901231-133.671419c-2.707668-4.640694-3.438309-10.055007-2.053776-15.240099 1.406023-5.26798 4.805446-9.676383 9.576099-12.413727 9.750061-5.614881 22.338774-2.273786 28.054963 7.468089l77.873602 133.674489C531.026844 610.047316 527.635607 622.4723 517.920338 628.074901zM396.811026 419.991726l-0.035816 0.039909c-3.213181 1.848091-6.731308 2.727111-10.205433 2.727111-7.089465 0-14.004969-3.653203-17.817808-10.183943l-8.645914-14.843056c-2.707668-4.637624-3.437286-10.041704-2.056845-15.21861 1.401929-5.26184 4.809539-9.668197 9.586332-12.414751 9.765411-5.608741 22.331611-2.261507 28.02938 7.457856l8.634658 14.843056c2.723018 4.731768 3.440355 10.219759 2.01489 15.441691C404.899238 413.012777 401.524374 417.329083 396.811026 419.991726zM494.738359-27.46016599999996L44.749692-27.46016599999996c-16.056698 0-29.120224-14.9679-29.120224-30.851659 0-15.882736 13.063527-30.846542 29.120224-30.846542l449.988668 0c16.030092 0 29.074176 14.963807 29.074176 30.846542C523.812535-42.428065999999944 510.768451-27.46016599999996 494.738359-27.46016599999996zM1020.603135 218.341053c-1.719154 6.526647-5.91471 11.995195-11.819187 15.397688L580.497559 457.067132l98.689696 169.378665c7.972579 13.673417 10.104125 29.618575 6.007831 44.910862-4.125971 15.397688-14.048971 28.253484-27.942399 36.199457L387.462101 861.949486c-9.118682 5.202489-19.484773 7.953136-29.973662 7.953136-21.474081 0-41.441854-11.376095-52.105728-29.686113L11.063475 335.201597c-7.965415-13.687744-10.094916-29.649274-5.997598-44.939515 4.118807-15.378246 14.033621-28.233018 27.921933-36.19127L302.796816 99.72349099999997c9.128915-5.222955 19.498076-7.983835 29.990035-7.983835 21.457708 0 41.401945 11.386328 52.055586 29.715789l98.999758 169.999812 412.916331-249.78802c3.734044-2.137687 8.082072-3.292999 12.496615-3.292999 9.103332 0 17.578354 4.827959 22.107507 12.602016l86.551238 148.528801C1021.336846 205.25808300000006 1022.282381 211.93617900000004 1020.603135 218.341053zM349.472881 161.11060699999996c-5.490038-7.696286-15.198144-10.4367-22.458501-10.4367-1.277086 0-2.493797 0.084934-3.614317 0.249687-9.964956 1.477654-19.907399 6.551206-24.949228 9.447163L88.553337 280.43425c-10.127661 5.785773-17.369599 15.165398-20.386306 26.409486-3.009544 11.213389-1.445932 22.925129 4.40124 32.976042l259.585153 445.62836c7.801686 13.372565 22.354124 21.675672 37.975916 21.675672 7.618515 0 15.144932-1.997494 21.767769-5.779633l209.780841-120.076796c10.152221-5.815449 17.401322-15.21554 20.414959-26.465768 2.99931-11.203156 1.433652-22.89443-4.40738-32.917714C590.557682 575.176111 352.525404 165.39518999999996 349.472881 161.11060699999996zM899.885749 96.20127200000002l-389.606439 240.262062 43.448558 74.600045 407.745565-207.880561L899.885749 96.20127200000002z"  horiz-adv-x="1024" />

    
    <glyph glyph-name="lookup" unicode="&#58895;" d="M921.49547094 11.722484060000056L668.32138344 266.455695c47.19905438 56.51720156 75.61519312 129.26180063 75.61519312 208.64797687 0 179.89051406-145.84725563 325.73467219-325.74801844 325.73467219-179.89884469 0-325.74609938-145.84415813-325.74609937-325.73467219 0-179.89243313 145.84725563-325.73467219 325.74609937-325.73467218 81.74856656 0 156.46097438 30.11973844 213.65686032 79.86009468l252.7989675-254.35522687c10.17815625-10.18061719 26.67005156-10.18061719 36.85012687 0C931.67554625-14.974295630000029 931.67554625 1.5428259399999433 921.49547094 11.722484060000056zM418.18951719 201.05491687999995c-151.36949719 0-274.06094344 122.7104025-274.06094344 274.04971406 0 151.36233656 122.69144531 274.048755 274.06094344 274.048755 151.34551312 0 274.05998344-122.68545937 274.05998343-274.048755C692.24950062 323.76531937000004 569.53598937 201.05491687999995 418.18951719 201.05491687999995z"  horiz-adv-x="1024" />

    
    <glyph glyph-name="icon05" unicode="&#59027;" d="M240.128 221.696 490.752 77.056 490.752 366.336 240.128 510.976ZM533.248 366.336 533.248 77.056 783.872 221.696 783.872 510.976ZM510.72 690.944 261.504 544 513.28 401.664 762.496 548.608Z"  horiz-adv-x="1024" />

    
    <glyph glyph-name="storage" unicode="&#58891;" d="M858.65843411 634.83037491L655.32176535 787.60585556c-4.50425885 3.38789026-9.97311347 5.21505808-15.60638727 5.21505808L264.30624924 792.82091281c-59.25267005 0-109.30626507-47.90939227-109.30626508-104.62493903l0-602.42224493c0-57.98368735 51.0814292-108.84926239 109.30626508-108.84926239l493.28039988 0c60.40698184 0 111.45046783 46.8815581 111.45046783 102.37871256L869.03711612 614.06036288C869.03711612 622.23160373 865.1930661 629.93319471 858.65843411 634.83037491zM664.27969183 715.87498901l0-142.97353308c0-22.54658862-22.92686197-34.71449441-44.49620682-34.71449441L353.32480017 538.1869615200001c-21.56934485 0-44.49620681 12.16790662-44.49620682 34.71449441L308.82859418 740.85077426l322.20963583 0L664.27969183 715.87498901zM817.06782049 79.30317819000004c0-29.70264248-31.35189936-50.40941611-59.48117137-50.40941611L264.30624924 28.893762079999988c-28.94125286 0-57.33696945 28.17986242-57.33696945 56.87996677L206.96927979 688.19597378c0 25.7279002 22.59549317 48.31074536 49.88917502 51.91701938l0-167.21238015c0-48.60754432 42.37729926-86.68379087 96.46634619-86.68379087l266.45868484 0c54.08820318 0 96.46634619 38.07624655 96.46634619 86.68379087L716.24983121 676.82908667l100.81798929-75.74861124L817.06782049 79.30317819000004zM282.84268115 257.03505101999997l229.18177112 0c14.35005175 0 25.98506927 11.63501753 25.98506927 25.98506928 0 14.35005175-11.63501753 25.98506927-25.98506927 25.98506928L282.84268115 309.00519039999995c-14.35005175 0-25.98506927-11.63501753-25.98506928-25.98506928C256.85845481 268.67006854 268.4926294 257.03505101999997 282.84268115 257.03505101999997zM690.26476111 309.00519039999995L588.41893765 309.00519039999995c-14.35005175 0-25.98506927-11.63501753-25.98506927-25.98506928 0-14.35005175 11.63501753-25.98506927 25.98506927-25.98506927l101.84582346 0c14.35005175 0 25.98506927 11.63501753 25.98506928 25.98506927C716.24983121 297.37017288000004 704.61481369 309.00519039999995 690.26476111 309.00519039999995zM410.1659808 156.21706173999996L282.84268115 156.21706173999996c-14.35005175 0-25.98506927-11.63501753-25.98506928-25.98506928s11.63501753-25.98506927 25.98506928-25.98506927l127.32329965 0c14.35005175 0 25.98506927 11.63501753 25.98506928 25.98506927S424.51603257 156.21706173999996 410.1659808 156.21706173999996zM690.26476111 156.21706173999996L486.56046702 156.21706173999996c-14.35005175 0-25.98506927-11.63501753-25.98506928-25.98506928s11.63501753-25.98506927 25.98506928-25.98506927l203.70429492 0c14.35005175 0 25.98506927 11.63501753 25.98506927 25.98506927S704.61481369 156.21706173999996 690.26476111 156.21706173999996zM588.41893765 588.07529361c14.35005175 0 25.98506927 11.63501753 25.98506928 25.98506927l0 76.39364247c0 14.35005175-11.63501753 25.98506927-25.98506928 25.98506927-14.35005175 0-25.98506927-11.63501753-25.98506927-25.98506927l0-76.39364247C562.43386838 599.71031113 574.06888589 588.07529361 588.41893765 588.07529361z"  horiz-adv-x="1024" />

    
    <glyph glyph-name="wancheng" unicode="&#59039;" d="M507.932332 883.857708C228.558419 883.857708 2.023715 657.343241 2.023715 377.908617 2.023715 98.534704 228.558419-128 507.932332-128 787.326482-128 1013.881423 98.534704 1013.881423 377.908617 1013.881423 657.343241 787.326482 883.857708 507.932332 883.857708L507.932332 883.857708zM791.212016 509.429881 467.377075 186.991304c-7.649644-7.629407-18.13249-12.324427-29.809328-12.324427-11.717312 0-22.281107 4.69502-29.930751 12.324427l-182.964111 182.25581c-7.710356 7.60917-12.344664 18.13249-12.344664 29.708142 0 23.212016 18.881265 42.093281 42.153992 42.093281 11.697075 0 22.200158-4.735494 29.829565-12.344664l153.255968-152.527431 293.924427 292.710198c7.588933 7.588933 18.172964 12.283953 29.809328 12.283953 23.373913 0 42.275415-18.840791 42.275415-42.012332C803.576917 527.562372 798.821186 516.998577 791.212016 509.429881L791.212016 509.429881z"  horiz-adv-x="1024" />

    
    <glyph glyph-name="shujuku" unicode="&#58921;" d="M512 805.875c-233.007 0-421.875-59.036-421.875-131.836v-105.469c0-72.8 188.868-131.836 421.875-131.836s421.875 59.036 421.875 131.836v105.469c0 72.8-188.868 131.836-421.875 131.836zM512 357.633c-233.007 0-421.875 59.036-421.875 131.836v-158.203c0-72.8 188.868-131.836 421.875-131.836s421.875 59.036 421.875 131.836v158.203c0-72.8-188.868-131.836-421.875-131.836zM512 120.328c-233.007 0-421.875 59.036-421.875 131.836v-158.203c0-72.8 188.868-131.836 421.875-131.836s421.875 59.036 421.875 131.836v158.203c0-72.8-188.868-131.836-421.875-131.836z"  horiz-adv-x="1024" />

    
    <glyph glyph-name="wodejiaose" unicode="&#58917;" d="M1021.21696752 590.45507813L850.02800319 761.3803708400001a61.76513647 61.76513647 0 0 1-48.44970703 17.86377004 64.53369115 64.53369115 0 0 1-4.94384766 0.1977539H705.40397923l-6.39404271-3.55957031C665.25993627 757.09570338 622.1495847 746.81250025 577.6549558 746.81250025S490.04997533 757.09570338 456.29997584 775.88232447L449.90593236 779.44189478H358.74138158a62.16064428 62.16064428 0 0 1-54.97558594-32.76123072L134.62028808 577.7329104099999A61.10595703 61.10595703 0 0 1 116.49284642 534.02929713c0-16.47949193 6.39404272-31.9702151 18.12744167-43.63769557L258.21647949 366.99316406a61.43554713 61.43554713 0 0 1 38.1005862-17.86376928v-298.2788091c0-34.40917969 28.01513697-62.35839818 62.42431589-62.35839818h437.82714844a62.42431666 62.42431666 0 0 1 62.42431666 62.35839818V361.8515625a61.04003932 61.04003932 0 0 1 38.56201171 17.86376928l123.66210913 123.3984375a61.89697266 61.89697266 0 0 1 0 87.34130884z"  horiz-adv-x="1194" />

    
    <glyph glyph-name="wodefuwu" unicode="&#58897;" d="M772.08917333 792.68864h-521.29450666c-57.61820445 0-104.30691555-45.72956445-104.30691556-102.15196445v-715.22304h48.68323556l107.73731555 76.61226667 104.30919111-76.61226667 104.22727112 76.61226667 104.3091911-76.61226667 104.22727112 76.61226667 107.73845333-76.61226667h48.68209778v715.22304c-0.00113778 56.4224-46.68871111 102.15196445-104.30691556 102.15196445zM618.7008 395.09333333l25.37699555-144.68778666-132.55907555 68.31445333-132.55793778-68.31445333 25.29735111 144.68778666-107.25944888 102.47168 148.19896888 21.14901334 66.23800889 131.59879111 66.31879111-131.59879111 148.20010667-21.14673778-107.26058667-102.47168z"  horiz-adv-x="1024" />

    
    <glyph glyph-name="yingyong" unicode="&#59037;" d="M882.521 613.012l-354.987 204.861c-8.98 5.219-20.146 5.219-29.127 0l-354.987-204.861c-8.98-5.219-14.563-14.806-14.563-25.244v-409.842c0-10.437 5.583-20.025 14.563-25.244l354.987-204.982c4.491-2.548 9.588-3.884 14.563-3.884s10.073 1.334 14.563 3.884l354.987 204.982c8.98 5.219 14.563 14.806 14.563 25.244v409.842c0 10.437-5.583 20.025-14.563 25.244zM838.83 194.674l-325.859-188.112-325.859 188.112v376.225l325.859 188.112 325.859-188.112v-376.225zM270.124 512.524c-8.010-13.957-3.277-31.797 10.681-39.807l202.676-116.994v-231.439c0-16.142 12.986-29.127 29.127-29.127s29.127 12.986 29.127 29.127v231.075l203.404 117.479c13.957 8.010 18.69 25.851 10.681 39.807s-25.851 18.69-39.807 10.681l-203.040-117.236-203.040 117.236c-13.957 8.010-31.676 3.155-39.807-10.801z"  horiz-adv-x="1024" />

    
    <glyph glyph-name="MySubscriptions" unicode="&#58939;" d="M853.333-71.111h-682.667c-62.838-0-113.778 50.94-113.778 113.778l0 682.667c0 62.838 50.94 113.778 113.778 113.778h682.667c0 0 0 0 0 0 62.838 0 113.778-50.94 113.778-113.778v-682.667c0-62.838-50.94-113.778-113.778-113.778 0 0 0 0 0 0zM739.556 440.889h-170.667v170.667c-0 31.419-25.47 56.889-56.889 56.889s-56.889-25.47-56.889-56.889l0-170.667h-170.667c-0 0-0 0-0 0-31.419 0-56.889-25.47-56.889-56.889 0-31.419 25.47-56.889 56.889-56.889 0 0 0 0 0 0h170.667v-170.667c0-31.419 25.47-56.889 56.889-56.889s56.889 25.47 56.889 56.889v170.667h170.667c31.419 0 56.889 25.47 56.889 56.889 0 31.419-25.47 56.889-56.889 56.889z"  horiz-adv-x="1024" />

    
    <glyph glyph-name="stop" unicode="&#58915;" d="M512 779.5078125C293.57021681 779.5078125 116.4921875 602.4297831900001 116.4921875 384s177.07802931-395.5078125 395.5078125-395.5078125 395.5078125 177.07802931 395.5078125 395.5078125S730.42978319 779.5078125 512 779.5078125z m0-734.51450903C324.76942651 44.99330347 172.99330347 196.76942651000002 172.99330347 384S324.76942651 723.00669653 512 723.00669653s339.00669653-151.77612305 339.00669653-339.00669653-151.77612305-339.00669653-339.00669653-339.00669653zM589.22113451 242.74720972H434.77886549a56.56291405 56.56291405 0 0 0-56.50111596 56.50111596V468.75167433a56.56291405 56.56291405 0 0 0 56.50111595 56.50111595h154.44226903a56.56291405 56.56291405 0 0 0 56.50111596-56.50111595v-169.50334866a56.56291405 56.56291405 0 0 0-56.50111596-56.50111595z m-154.38929955 56.50111596h154.33633008l0.05296947 0.05297022V468.69870409l-0.05296947 0.05297024H434.83183496l-0.05296947-0.05297023v-169.3974082z"  horiz-adv-x="1024" />

    
    <glyph glyph-name="select" unicode="&#58901;" d="M311.36115312 146.74517906000005H159.942215c-37.0683075 0-67.19955844 30.19168969-67.19955845 67.25807907V736.3969153099999c0 37.0683075 30.13125094 67.22929875 67.19955845 67.22929781h646.48648219c37.06734844 0 67.19955844-30.16099125 67.19955844-67.22929781v-271.45371469c0-12.37560937-19.55346281-22.41999937-31.924275-22.41999937-12.38040562 0-28.16266594 10.04439001-28.16266594 22.41999938V721.09241156c0 12.37560937-10.04534906 22.41904031-22.41616125 22.41903938H173.33377531c-12.37465031 0-22.35860063-10.04343094-22.35860062-22.41903938v-493.69567499c0-12.37560937 9.98395125-22.42095844 22.35860062-22.42095844h138.02737781c12.43412999 0 22.47852-17.69616188 22.47852001-30.07177125-0.05947969-12.37465031-10.04439001-28.15882875-22.47852-28.15882782zM679.88377438-33.743010010000035a19.82495906 19.82495906 0 0 0-18.35427563 12.43412907L602.11889937 124.80869156000006 487.07465938 6.730029370000011c-5.38099125-6.21754406-14.11011375-8.37032531-21.76188563-5.49899156-7.77169125 2.86845563-12.854325 10.28326781-12.854325 18.47419406v583.65867938a19.70791781 19.70791781 0 0 0 11.77697531 18.05495906c7.17497531 3.16873125 15.54434063 1.85442281 21.28413-3.40665094l439.91933438-376.32884906c5.97866625-5.49899156 8.06812969-16.08253594 5.14211343-23.67482812-2.98933312-7.59421125-10.34658469-12.67588594-18.47803125-12.67588594l-165.43695375-0.30315469 62.35292438-162.12719719c4.06380469-10.16430844-0.89411344-21.64388531-11.05650375-25.70865l-110.72524875-49.56287625c-2.39261812-0.95647125-4.90131655-1.43422781-7.29393469-1.43422781l-0.05947969 0.0604397z m-66.10685907 264.72867376c0.89795156 0.06043875 1.73450437 0 2.57201625-0.17939812 5.38003219-0.83559375 9.80455219-4.36312219 11.836455-9.3258375l64.80214407-178.17999375 48.66780281 20.20677937-70.56016031 180.09389624c-1.97242313 4.7238375-1.43422781 9.20495906 1.43422781 13.50956064a15.83886094 15.83886094 0 0 0 12.79484531 7.05409781l114.90993094-0.36359344-284.57665688 237.92732531-0.12567468-370.464345 86.58705375 94.34243532c2.98933312 3.40761001 7.23349594 5.37907312 11.65705687 5.44047187v-0.06139875h0.00095906z"  horiz-adv-x="1024" />

    
    <glyph glyph-name="mima" unicode="&#58907;" d="M511.63138918 307.24997698000004h15.11304073c12.53276505 0 22.69589035-12.79605872 22.69589035-28.751639v-134.22697009c0-15.85026231-10.16312449-28.75163818-22.74854892-28.75163818h-15.06038216c-12.58542443 0-22.69589035 12.90137586-22.69589034 28.75163818V278.49833798c0 15.95557947 10.11046592 28.75163818 22.69589034 28.75163901zM826.00369741 403.14142951v-345.86219779a37.91424819 37.91424819 0 0 0-38.33551758-37.65095536H250.70763926a38.01956533 38.01956533 0 0 0-38.38817698 37.65095536V403.14142951h613.68423513z m57.55593577 57.55593493h-76.72369455V518.2533002c0 162.18872891-132.75252768 287.6216998-287.56904124 287.6216998-156.87020187 0-287.67435837-130.75149792-287.67435836-287.6216998v-57.55593575H154.81618591v-403.36547416c0-52.60601953 42.96948157-95.20689029 95.89145335-95.20689029h536.96054057c52.97463035 0 95.83879395 42.60087076 95.83879478 95.20689029v403.36547416h0.05265857z m-134.22697092 0h-460.23684686V518.2533002c0 125.11701947 105.05406253 230.11842343 230.171082 230.11842343 122.06281586 0 230.11842343-100.73605161 230.11842343-230.11842343v-57.55593576z"  horiz-adv-x="1024" />

    
    <glyph glyph-name="asset-sales" unicode="&#59010;" d="M410.426 577.602c0-56.937-46.444-103.38-103.38-103.38s-103.381 46.443-103.381 103.38 46.444 103.38 103.38 103.38 103.38-46.443 103.38-103.38z m-68.978 0c0 19.093-15.481 34.403-34.403 34.403s-34.403-15.482-34.403-34.403c0-18.922 15.482-34.403 34.403-34.403 18.922-0.172 34.403 15.31 34.403 34.403zM616.155 712.289l312.377-317.194c19.954-19.438 31.479-47.304 31.479-76.718 0-29.243-11.353-56.937-31.135-76.031l-283.307-275.91c-39.219-38.015-113.873-38.187-153.265 0.172L140.191 310.98c-60.72 59.001-76.202 82.567-76.202 162.553V625.078c0 142.943 29.071 206.761 201.257 206.761h142.083c87.384 0.172 138.3-50.056 208.826-119.55z m-18.578-696.313l283.307 275.738c6.537 6.365 10.149 15.998 10.149 26.663 0 10.837-3.784 20.813-11.181 27.866L596.373 635.0550000000001l-28.726 28.038c-70.182 69.322-103.725 99.94-160.49 99.94H265.074c-123.334 0-132.279-19.093-132.279-137.783v-151.545c0-54.528 1.548-61.065 55.388-113.185l352.113-344.544c6.881-6.709 17.202-10.493 28.555-10.493 11.353 0 21.845 3.784 28.726 10.493z"  horiz-adv-x="1024" />

    
    <glyph glyph-name="admin" unicode="&#58884;" d="M458.44121094 779.49287109c-103.42705078 1.31308594-193.921875-86.94140625-195.70869141-196.16132812-0.89384766-61.51816406 26.30742188-117.68378906 73.54511719-157.37519531l13.82607422-8.46298828-14.25673828-5.34111329c-129.28095703-48.66240234-217.55742187-170.76005859-219.35566407-310.29257812v-2.20693359c0-51.92314453 42.09082031-94.01396484 94.01396485-94.01396485 0 0 0 0 0 0h0.07734375l254.53388672-3.1227539c8.46298828 0 22.28994141 3.03486328 22.74257812 19.91689453 0.45263672 19.61982422-13.82607422 22.06845703-21.83730469 22.06845703l-254.55585937 3.16757812c-24.51884766 0-52.43642578 27.91669922-52.43642578 52.43642578v1.34648438c1.77626953 147.99550781 121.87617187 275.69882813 263.92412109 281.72373047l39.0506836-0.45263672c33.42392578 2.20693359 81.13710937 10.26298828 106.54980468 32.09941406l11.13310547 8.46298828c48.13330078 38.34492187 76.68984375 94.07021484 77.56259766 155.5875 1.35703125 108.28212891-86.91855469 199.26210937-198.81035156 200.61914063zM459.66728516 424.89814453c-85.40771484 0.94833984-155.31152344 72.74003906-153.8991211 158.12490234 0.94833984 85.39628906 72.74003906 154.83603516 158.12490235 153.8991211s155.31152344-72.74003906 153.89912109-158.12490235-72.7171875-155.34404297-158.12490234-153.89912109zM905.00996094 224.38886719000004c-2.59277344 13.94824219-13.59492188 25.23603516-24.73857422 25.38017578h-2.78085938c-24.29384766 0.00527344-43.9875 19.69980469-43.9875 43.99453125 0 0.39550781 0.00615234 0.79013672 0.01582032 1.18300781 0.07558594 5.45888672 2.95664062 13.8234375 2.99970703 16.61572266 5.74892578 13.83662109 0.39726563 30.62109375-10.63652344 39.12802734l-49.74345703 28.49150391-13.92539063 0.17753906c-8.35224609 0.11074219-19.53105469-2.53828125-25.20263671-10.8140625-5.63818359-5.51689453-22.52197266-19.22255859-33.65507813-19.06787109s-27.675 14.29013672-35.94990234 19.97226562c-5.51777344 5.62763672-13.78300781 11.31064453-24.91611328 11.45302734-5.51777344 0.07734375-8.35224609 0.11074219-11.17792969-2.64814453l-53.25292969-27.16699218c-11.24384766-8.1984375-17.02617187-24.82734375-11.64111328-38.83095704 1.62070312-5.17939453 2.56113281-11.13486328 2.57607422-17.30917968-0.00439453 0.57568359-0.00439453 0.57128906-0.00439453 0.56601562 0-24.29121094-19.69189453-43.98398437-43.98398438-43.98398437-0.39990234 0-0.79716797 0.00615234-1.19443359 0.01669922l-2.72285156-0.00175782c-11.13398438 0.14326172-22.42177734-10.84658203-25.38017579-24.72802734 0-2.79140625-5.84824219-22.21259766-6.10136718-41.69970703-0.22060547-16.70625 2.27373047-39.01816406 5.0211914-41.83154297 2.60332031-13.95878906 13.61601562-25.22548828 24.75-25.38017578h2.7694336c0.00527344 0 0.00966797 0 0.0149414 0 24.29121094 0 43.98398437-19.69189453 43.98398438-43.98398438 0-0.40253906-0.00615234-0.80595703-0.01669922-1.20673828-0.07558594-5.45800781-2.95664062-13.8234375-2.99970703-16.61484375-5.74892578-13.84892578-0.38671875-30.62109375 10.63652344-39.11748047l49.76542968-28.4915039c5.59423828 2.7140625 8.37509766 2.67011719 13.94824219 2.60419922 8.35224609-0.09931641 19.52050781 2.53740234 25.20263672 10.82460937 5.63818359 5.51777344 22.55449219 21.98144531 36.47988281 21.80390625 11.13398438-0.14326172 30.44443359-14.34462891 35.90595703-22.74257812 5.51777344-5.64960937 13.78300781-11.32119141 24.92666016-11.46445313 5.51777344-0.07734375 8.34169922-0.11074219 13.94736328 2.60419922l50.48349609 27.20039062c11.24384766 8.1984375 17.02617187 24.83876953 11.64111329 38.83095704-1.62070312 5.17763672-2.56113281 11.13310547-2.57607422 17.30478515 0.00439453-0.56865234 0.00439453-0.55986328 0.00439453-0.55019531 0 24.28505859 19.6875 43.97255859 43.97255859 43.97255859 0.40253906 0 0.80595703-0.00615234 1.20673828-0.01669922l2.72197266 0.00175782c11.13398438-0.14326172 22.42177734 10.84658203 25.38017578 24.73857422 0 0 5.84824219 22.20205078 6.10136719 41.68828125-5.39560547 13.9921875-7.90136719 36.31464844-7.86708985 39.09638671zM865.13134766 155.27958983999997c-41.83154297-5.03173828-72.89384766-38.04697266-73.46777344-82.59345703-0.11074219-8.35224609 2.52685547-19.53105469 5.23037109-25.12529297l-36.41396484-19.02392578-13.74960938 14.10205078c-16.55244141 11.35458984-30.41103516 17.10351563-47.11728515 17.3241211-13.92539063 0.17753906-30.69755859-5.175-47.54794922-16.09892578-5.63818359-5.51777344-11.24384766-8.20986328-14.10205078-13.74960938l-33.10400391 19.92832031c2.84677734 5.51777344 5.77089844 16.64033203 5.88164063 24.98203125 0.52998047 41.765625-29.62792969 78.34482422-71.30478516 84.459375 0.07734375 5.51777344-2.57080078 16.75019531-2.42841797 27.88417969 0.11074219 8.35224609 3.03398438 19.45371094 3.14472656 27.79628906 41.83154297 5.03173828 72.88330078 38.04697266 73.46777344 82.59345704 0.09931641 8.35224609-2.52685547 19.53193359-5.24091797 25.13583984l36.41396485 19.02392578c2.74833984-2.82480469 8.24326172-8.46298828 13.77070312-11.32119141 16.5515625-11.35458984 30.41103516-17.09208984 44.33730469-17.28017578s27.90615234 5.20839844 44.75654297 16.12177735c5.63818359 5.51689453 11.24384766 8.1984375 14.05898437 10.96875l35.91826172-19.95117188c-2.84677734-5.51777344-5.78144531-16.62978516-5.8921875-24.98203125-0.54052734-41.765625 29.62792969-78.34482422 71.31621094-84.46992187-0.06679687-5.51777344 2.56025391-16.72910156 2.41699219-27.87363282 2.69208984-8.39794922-0.23115234-19.49765625-0.34189454-27.85078125zM776.53583984 195.40166016c-5.13105469 33.46699219-29.87050781 58.84716797-60.42568359 64.83955078-52.76777344 11.81865234-100.69013672-34.90224609-90.28476562-90.73740235 5.175-30.6984375 29.91533203-56.07773437 60.4696289-62.04814453 52.76777344-11.81865234 100.69013672 34.90224609 90.24082031 87.94511719zM700.74951172 149.05605469c-19.48710937 0.24257812-35.971875 17.1703125-35.73017578 36.66796875s17.1703125 35.971875 36.65654297 35.71875 35.98417969-17.18085938 35.73017578-36.71191407-17.15888672-35.93935547-36.65654297-35.68623046z"  horiz-adv-x="1031" />

    
    <glyph glyph-name="waiting" unicode="&#58918;" d="M512 883.5c-276.1 0-500-223.9-500-500s223.9-500 500-500 500 223.9 500 500-223.9 500-500 500z m263.1-650.1c0-27.6-22.4-50-50-50H462.6c-27.6 0-50 22.4-50 50V640.2c0 27.6 22.4 50 50 50s50-22.4 50-50v-356.7h212.5c27.6-0.1 50-22.5 50-50.1z"  horiz-adv-x="1024" />

    
    <glyph glyph-name="box" unicode="&#58941;" d="M939.58144 739.16416l-409.6 153.6a51.712 51.712 0 0 1-35.96288 0l-409.6-153.6a51.2 51.2 0 0 1 0-95.90784l409.6-153.6a51.32288 51.32288 0 0 1 35.96288 0l409.6 153.6a51.2 51.2 0 0 1 0 95.90784zM512-128a51.69152 51.69152 0 0 0-17.98144 3.25632l-409.6 153.6A51.2 51.2 0 0 0 51.2 76.8V486.4a51.2 51.2 0 0 0 102.4 0v-374.08768l358.4-134.41024 358.4 134.41024V486.4a51.2 51.2 0 1 0 102.4 0v-409.6a51.2 51.2 0 0 0-33.21856-47.94368l-409.6-153.6a51.69152 51.69152 0 0 0-17.98144-3.25632z"  horiz-adv-x="1024" />

    
    <glyph glyph-name="wodejiankong" unicode="&#58904;" d="M899.44860445 413.94289778a376.14705778 376.14705778 0 0 1-378.24398223 377.19608889 376.14705778 376.14705778 0 0 1-378.24512-377.19608889c0-164.16085333 105.14887111-303.85493333 252.18275556-356.22456889C314.63424 29.814328889999956 262.03022222-22.672497779999958 262.03022222-82.03377778000004h507.8016c0 59.41930667-48.99157333 111.84810667-126.0032 139.75210667C794.47495111 110.02993777999995 899.44746667 249.72401778000005 899.44746667 413.94289778zM528.25315555 148.47772444999998c-108.64412445 0-199.69592889 90.87658667-199.69592888 199.11338666s91.05180445 199.05422222 199.69592888 199.05422222A199.28746667 199.28746667 0 0 0 727.94794667 347.59111111000004a199.34549333 199.34549333 0 0 0-199.69479112-199.11338666zM521.20462222 434.85639111c-52.54599111 0-97.98428445-45.43829333-97.98428444-97.75104 0-55.86488889 45.43829333-97.75104 97.98428444-97.75104a97.75104 97.75104 0 0 1 0 195.50208z"  horiz-adv-x="1024" />

    
    <glyph glyph-name="total-members" unicode="&#59558;" d="M601.55 703.95c55.8-12.6 107.55-40.95 148.5-81.9 40.95-40.95 69.3-92.7 81.9-148.5h-230.85V703.95m-37.8 73.8c-16.2 0-29.7-13.5-29.7-30.15v-311.85c0-16.65 13.5-30.15 30.15-30.15h311.85c17.55 0 31.5 14.85 30.15 31.95C890.45 618 746.45 762 566 777.3c-0.9 0.45-1.8 0.45-2.7 0.45zM492.65 325.5c-19.8 0-36 16.2-36 36V693.15c0 22.95-21.6 40.05-44.1 35.1C231.2 689.1 98.45 518.1 120.5 320.54999999999995c18.9-171.45 156.6-309.15 328.05-328.05 196.2-21.6 366.3 108.9 406.8 288.45 4.95 22.5-11.7 44.1-35.1 44.1H492.65z"  horiz-adv-x="1024" />

    
    <glyph glyph-name="dashujucunchu" unicode="&#58974;" d="M975.644444 233.244444V534.755556c28.444444 14.222222 51.2 42.666667 51.2 76.8 0 48.355556-36.977778 85.333333-85.333333 85.333333-19.911111 0-39.822222-8.533333-54.044444-19.911111L594.488889 830.577778C585.955556 867.555556 551.822222 896 512 896c-42.666667 0-79.644444-31.288889-85.333333-73.955556L145.066667 671.288889C130.844444 688.355556 108.088889 696.888889 85.333333 696.888889c-48.355556 0-85.333333-36.977778-85.333333-85.333333 0-39.822222 28.444444-73.955556 65.422222-82.488889v-290.133334C28.444444 230.4 0 196.266667 0 156.444444c0-48.355556 36.977778-85.333333 85.333333-85.333333 22.755556 0 45.511111 8.533333 59.733334 25.6l281.6-150.755555c5.688889-42.666667 39.822222-73.955556 85.333333-73.955556 39.822222 0 73.955556 28.444444 82.488889 65.422222l290.133333 153.6c14.222222-11.377778 34.133333-19.911111 54.044445-19.911111 48.355556 0 85.333333 36.977778 85.333333 85.333333 0 34.133333-19.911111 62.577778-48.355556 76.8z m-96.711111-14.222222l-133.688889 65.422222v199.111112l133.688889 65.422222c11.377778-11.377778 22.755556-17.066667 36.977778-19.911111v-290.133334c-14.222222-2.844444-25.6-11.377778-36.977778-19.911111zM853.333333 600.177778l-139.377777-68.266667L540.444444 631.466667V731.022222c19.911111 8.533333 36.977778 22.755556 45.511112 39.822222l267.377777-142.222222v-28.444444zM520.533333 190.577778l-170.666666 96.711111v193.422222l170.666666 96.711111 170.666667-96.711111v-193.422222l-170.666667-96.711111zM483.555556 731.022222v-105.244444l-167.822223-96.711111L170.666667 600.177778V611.555556v8.533333l270.222222 145.066667c8.533333-17.066667 25.6-28.444444 42.666667-34.133334zM145.066667 548.977778l147.911111-73.955556v-184.888889l-147.911111-73.955555c-5.688889 5.688889-14.222222 11.377778-22.755556 17.066666V534.755556c8.533333 2.844444 14.222222 8.533333 22.755556 14.222222zM170.666667 167.822222l145.066666 73.955556 167.822223-96.711111v-105.244445c-17.066667-5.688889-34.133333-17.066667-42.666667-34.133333l-270.222222 142.222222V156.444444v11.377778z m369.777777-130.844444v99.555555l176.355556 99.555556 139.377778-68.266667v-11.377778c0-5.688889 0-11.377778 2.844444-17.066666l-267.377778-142.222222c-14.222222 19.911111-31.288889 34.133333-51.2 39.822222z"  horiz-adv-x="1026" />

    
    <glyph glyph-name="work-load" unicode="&#58956;" d="M495.502822 892.063084c9.098443 5.299093 23.895912 5.199111 32.994356 0l415.028999-239.758984c9.098443-5.299093 16.497178-18.096904 16.497178-28.595108v-479.417984c0-10.498204-7.398734-23.296015-16.497178-28.595108l-415.028999-239.758984c-9.098443-5.299093-23.895912-5.199111-32.994356 0L80.473823 115.795883c-9.098443 5.299093-16.497178 18.096904-16.497178 28.595108V623.8089749999999c0 10.498204 7.398734 23.296015 16.497178 28.595108L495.502822 892.063084z m0.099983-63.789088l-360.038407-207.964422c-9.098443-5.199111-16.397195-17.896938-16.397194-28.395143V176.08556899999996c0-10.498204 7.298751-23.196032 16.397194-28.395143l360.038407-207.964422c9.098443-5.199111 23.695946-5.199111 32.79439 0l360.038407 207.964422c9.098443 5.199111 16.397195 17.896938 16.397194 28.395143V592.014414c0 10.498204-7.298751 23.196032-16.397194 28.395142l-360.038407 207.964423c-9.098443 5.099128-23.695946 5.099128-32.79439-0.099983zM549.793535 56.80597399999999L792.951936 197.28194299999996c9.198426 5.299093 16.497178 17.996921 16.497178 28.595108v315.94595c0 10.598187-7.398734 23.296015-16.497178 28.595108l-273.553202 157.972975c-9.198426 5.299093-23.895912 5.299093-32.994355 0L215.650698 571.917852l317.645659-183.468613c9.098443-5.299093 16.497178-17.896938 16.497178-28.495125v-303.14814zM484.304738 40.50876200000005L215.150783 195.982165c-10.298238 5.998974-18.696801 20.296528-18.696801 32.394458v278.952279l269.053972-155.37342c10.398221-5.998974 18.796784-20.696459 18.796784-32.594424v-278.852296z"  horiz-adv-x="1024" />

    
    <glyph glyph-name="deploy" unicode="&#58910;" d="M828.40625 493.18652318V1.675781499999971a13.183594 13.183594 0 0 0-13.183594-13.183594h-26.36718725a13.183594 13.183594 0 0 0-13.183594 13.183594V493.18652318c-45.40429688 11.78613281-79.1015625 52.65527369-79.1015625 101.75097707 0 49.09570338 33.69726563 89.9648435 79.1015625 101.75097631V766.3242185a13.183594 13.183594 0 0 0 13.183594 13.183594h26.36718725a13.183594 13.183594 0 0 0 13.183594-13.183594v-69.63574194c45.40429688-11.78613281 79.1015625-52.65527369 79.1015625-101.75097631 0-49.09570338-33.69726563-89.9648435-79.1015625-101.75097707zM802.03906275 647.67187475a52.73437525 52.73437525 0 1 1-0.02636769-105.44238282A52.73437525 52.73437525 0 0 1 802.03906275 647.67187475zM538.36718725 71.31152343999997V1.675781499999971a13.183594 13.183594 0 0 0-13.18359325-13.183594h-26.367188a13.183594 13.183594 0 0 0-13.18359325 13.183594v69.63574194c-45.40429688 11.78613281-79.1015625 52.65527369-79.1015625 101.75097631 0 49.09570338 33.69726563 89.9648435 79.1015625 101.75097707V766.3242185a13.183594 13.183594 0 0 0 13.18359325 13.183594h26.367188a13.183594 13.183594 0 0 0 13.18359325-13.183594v-491.51074168c45.40429688-11.78613281 79.1015625-52.65527369 79.1015625-101.75097707 0-49.09570338-33.69726563-89.9648435-79.1015625-101.75097631zM512 225.796875a52.73437525 52.73437525 0 1 1-0.02636693-105.44238281A52.73437525 52.73437525 0 0 1 512 225.796875zM248.32812525 493.18652318V1.675781499999971a13.183594 13.183594 0 0 0-13.183594-13.183594h-26.36718725a13.183594 13.183594 0 0 0-13.183594 13.183594V493.18652318C150.18945312 504.972656 116.4921875 545.84179688 116.4921875 594.9375002500001c0 49.09570338 33.69726563 89.9648435 79.1015625 101.75097631V766.3242185a13.183594 13.183594 0 0 0 13.183594 13.183594h26.36718725a13.183594 13.183594 0 0 0 13.183594-13.183594v-69.63574194C293.73242213 684.90234375 327.42968775 644.03320287 327.42968775 594.9375002500001c0-49.09570338-33.69726563-89.9648435-79.1015625-101.75097707zM221.96093725 647.67187475a52.73437525 52.73437525 0 1 1-0.02636694-105.44238282A52.73437525 52.73437525 0 0 1 221.96093725 647.67187475z"  horiz-adv-x="1024" />

    
    <glyph glyph-name="jiazai" unicode="&#58894;" d="M940.8 310.4h-121.6c-35.2 0-60.8 28.8-60.8 60.8 0 35.2 28.8 60.8 60.8 60.8h121.6c35.2 0 60.8-28.8 60.8-60.8 3.2-32-25.6-60.8-60.8-60.8m-169.6 236.8c-25.6-22.4-64-22.4-86.4 0-22.4 22.4-22.4 64 0 86.4l86.4 86.4c22.4 22.4 64 22.4 86.4 0 22.4-22.4 22.4-64 0-86.4l-86.4-86.4M512-118.4c-35.2 0-60.8 28.8-60.8 60.8V64c0 35.2 28.8 60.8 60.8 60.8 35.2 0 60.8-28.8 60.8-60.8v-121.6c0-32-25.6-60.8-60.8-60.8m0 736c-35.2 0-60.8 28.8-60.8 60.8V803.2c0 35.2 25.6 60.8 60.8 60.8 35.2 0 60.8-28.8 60.8-60.8v-121.6c0-35.2-25.6-64-60.8-64M252.8 25.6c-22.4-22.4-64-22.4-86.4 0-22.4 22.4-22.4 64 0 86.4l86.4 86.4c22.4 22.4 64 22.4 86.4 0 22.4-22.4 22.4-64 0-86.4l-86.4-86.4m0 521.6L166.4 633.6c-22.4 22.4-22.4 64 0 86.4 22.4 22.4 64 22.4 86.4 0l86.4-86.4c22.4-22.4 22.4-64 0-86.4-25.6-25.6-64-25.6-86.4 0m12.8-172.8c0-35.2-28.8-60.8-60.8-60.8H83.2c-35.2 0-60.8 28.8-60.8 60.8 0 35.2 28.8 60.8 60.8 60.8h121.6c35.2 0 60.8-28.8 60.8-60.8m505.6-176l86.4-86.4c22.4-22.4 22.4-64 0-86.4-22.4-22.4-64-22.4-86.4 0l-86.4 86.4c-22.4 25.6-22.4 64 0 86.4 25.6 25.6 64 25.6 86.4 0m0 0z"  horiz-adv-x="1024" />

    
    <glyph glyph-name="CPU" unicode="&#58892;" d="M591.09997815 93.96333888000004h-52.73383375v-79.3649375a26.5252745 26.5252745 0 0 0-26.36691688-26.10350248 26.05097411 26.05097411 0 0 0-26.36768934 26.10350248v79.36416502H432.89847689v-79.36416502a26.5252745 26.5252745 0 0 0-26.36691688-26.10350248 26.05097411 26.05097411 0 0 0-26.36768934 26.10350248v79.36416502H327.00749244c-58.00752642 0-105.04666797 47.46091356-105.04666798 105.04744045v53.15560575H142.59588697A26.5252745 26.5252745 0 0 0 116.49238448 278.53252947c0 14.55498953 11.39092858 26.36768934 26.1035025 26.36768935h79.36493748v52.73383377H142.59588697A26.5252745 26.5252745 0 0 0 116.49238448 384.00096946c0 14.55498953 11.39092858 26.36768934 26.1035025 26.36768935h79.36493748V463.10172008H142.59588697A26.5252745 26.5252745 0 0 0 116.49238448 489.46940944c0 14.55498953 11.39092858 26.36768934 26.1035025 26.36768935h79.36493748V568.99270454c0 58.00752642 47.46091356 105.04666797 105.04666798 105.04666797h53.15560575V753.2459523800001C380.16309819 767.74841355 392.39757001 779.5078125 406.53078755 779.5078125a26.36691687 26.36691687 0 0 0 26.36691687-26.26186012v-79.20657987h52.73383375V753.2459523800001C485.63153817 767.74841355 497.86600999 779.5078125 512 779.5078125a26.36691687 26.36691687 0 0 0 26.36691687-26.26186012v-79.20657987h52.73383375V753.2459523800001C591.09997815 767.74841355 603.33444997 779.5078125 617.46766751 779.5078125a26.36691687 26.36691687 0 0 0 26.36691687-26.26186012v-79.20657987h53.15560575c58.0082989 0 105.04666797-47.46091356 105.04666799-105.04666797v-53.15560575h79.36493748c14.39663192 0 26.10350249-12.23447182 26.10350249-26.36768935 0-14.55421705-11.39015611-26.36691687-26.10350248-26.36691688h-79.36416502v-52.73383376h79.36416502c14.39663192 0 26.10350249-12.23447182 26.10350248-26.36768935 0-14.55421705-11.39015611-26.36691687-26.10350248-26.36691686h-79.36416502v-52.73383376h79.36416502c14.39663192 0 26.10350249-12.23447182 26.10350248-26.36768935 0-14.55421705-11.39015611-26.36691687-26.10350248-26.36691688h-79.36416502v-53.15560576c0-58.0082989-47.46091356-105.04666797-105.04744045-105.04666797h-53.15560576v-79.36493749a26.5252745 26.5252745 0 0 0-26.36691687-26.10350249 26.05097411 26.05097411 0 0 0-26.36768936 26.10350249v79.36416502zM274.69543069 568.99270454v-369.98269769c0-28.63567869 23.62540041-52.31206174 52.31206175-52.31206176h369.98347017a52.5762486 52.5762486 0 0 1 52.31206175 52.31206175V568.99270454a52.5762486 52.5762486 0 0 1-52.31206175 52.31206175H327.00749244a52.5762486 52.5762486 0 0 1-52.31206175-52.31206175z m105.46843998-105.89021198c0 29.10920583 23.41374193 52.73460623 52.73460622 52.73460622h158.20304622c29.10843336 0 52.73383375-23.41374193 52.73383374-52.73460622v-158.20304621c0-29.10843336-23.41374193-52.73383375-52.73460623-52.73383375h-158.2030462c-29.10843336 0-52.73383375 23.41374193-52.73383375 52.73460623v158.20304621z m52.73460622-158.20304621h158.20304622v158.20304621h-158.20304622v-158.20304621z"  horiz-adv-x="1024" />

    
    <glyph glyph-name="workgroup-members" unicode="&#58925;" d="M681.06640625 541.5703125a40.34179688 40.34179688 0 0 0-39.91992188-40.65820313h-258.39843749a40.39453125 40.39453125 0 0 0-39.81445313 40.65820313V686.37890625c0 22.359375 17.87695313 40.65820313 39.81445312 40.65820313h258.39843751c21.99023438 0 39.91992188-18.29882813 39.91992187-40.65820313v-144.80859375zM779.78515625 326.625a22.67578125 22.67578125 0 0 0-22.51757813 22.78125v15.97851563a35.6484375 35.6484375 0 0 1-34.69921874 35.59570312H534.359375v-44.296875A22.67578125 22.67578125 0 0 0 512 333.90234375a22.62304688 22.62304688 0 0 0-22.359375 22.83398438v44.29687499H301.58984375a35.54296875 35.54296875 0 0 1-34.91015625-35.6484375v-15.97851562c0-12.60351563-9.96679688-22.78125-22.30664063-22.78125s-22.359375 10.125-22.35937499 22.78125v15.97851562c0.10546875 44.82421875 35.75390625 81.2109375 79.52343749 81.31640626l420.92578126 0.05273437c43.76953125-0.10546875 79.41796875-36.65039063 79.41796874-81.31640625v-15.97851562a22.30664063 22.30664063 0 0 0-22.09570312-22.83398438zM849.13085938 67.69921875h-125.08593751a55.4765625 55.4765625 0 0 0-54.94921875 55.79296875v128.14453125c0 30.74414063 24.6796875 55.74023438 54.94921875 55.74023438h125.0859375c30.21679688 0 54.84375-24.99609375 54.84375-55.74023438v-128.19726563a55.37109375 55.37109375 0 0 0-54.84375-55.74023437z m-125.08593751 200.12695313c-8.33203125 0-15.3984375-7.43554688-15.3984375-16.18945313v-128.19726563c0-8.80664063 7.06640625-16.2421875 15.3984375-16.24218749h125.0859375c8.27929688 0 15.29296875 7.43554688 15.29296875 16.2421875V251.63671875c0 8.75390625-7.01367188 16.18945313-15.29296875 16.18945313h-125.0859375zM299.95507812 67.85742187000005H175.02734375A55.37109375 55.37109375 0 0 0 120.02539062 123.4921875v128.14453125c0 30.74414063 24.6796875 55.74023438 55.00195313 55.74023438h124.92773438a55.37109375 55.37109375 0 0 0 54.94921874-55.74023438v-128.19726563a55.37109375 55.37109375 0 0 0-54.94921875-55.58203124zM175.02734375 267.82617187000005a15.8203125 15.8203125 0 0 1-15.45117188-16.18945312v-128.19726563a15.8203125 15.8203125 0 0 1 15.45117188-16.08398437h124.92773438c8.33203125 0 15.3984375 7.3828125 15.39843749 16.08398438V251.63671875c0 8.75390625-7.06640625 16.18945313-15.3984375 16.18945313H175.02734375zM579.921875 67.85742187000005H455.20507812a55.37109375 55.37109375 0 0 0-55.0546875 55.63476563v128.14453125c0 30.74414063 24.73242188 55.74023438 55.0546875 55.74023438H580.02734375c30.32226563 0 55.0546875-24.99609375 55.0546875-55.74023438v-128.19726563c0-30.63867188-24.73242188-55.58203125-55.16015625-55.58203124z m-124.71679688 199.96875001a15.8203125 15.8203125 0 0 1-15.50390624-16.18945313v-128.19726563a15.8203125 15.8203125 0 0 1 15.50390625-16.08398437h124.71679687a15.87304687 15.87304687 0 0 1 15.609375 16.08398438V251.63671875a15.87304687 15.87304687 0 0 1-15.50390625 16.18945313H455.20507812z"  horiz-adv-x="1024" />

    
    <glyph glyph-name="wodeyingyong" unicode="&#58927;" d="M488.27375 171.48749999999995c0-106.9153125-86.6709375-193.584375-193.5853125-193.584375S101.1021875 64.57124999999996 101.1021875 171.48749999999995s86.671875 193.5853125 193.58625 193.5853125h193.584375v-193.584375z m43.02 0c0-106.9153125 86.67-193.584375 193.584375-193.584375s193.58625 86.6690625 193.58625 193.584375-86.6709375 193.5853125-193.5853125 193.5853125H531.29375v-193.584375z m-43.02 430.190625c0 106.9153125-86.6709375 193.584375-193.5853125 193.584375S101.1021875 708.5934374999999 101.1021875 601.678125s86.671875-193.58625 193.58625-193.58625h193.584375V601.678125z m43.02 0c0 106.9153125 86.67 193.584375 193.584375 193.584375s193.58625-86.67 193.58625-193.584375-86.6709375-193.58625-193.5853125-193.58625H531.29375V601.678125z"  horiz-adv-x="1024" />

    
    <glyph glyph-name="objAuthorization" unicode="&#58889;" d="M510.96979856 805.875L183.36569241 701.82463907c-12.25939911-3.91476599-20.60403223-15.35000345-20.60403222-28.22752359l1.6483233-409.19607175 0.41208042-4.63590692c0.61812103-2.88456455 14.01074149-71.28995031 81.0768653-137.22285196 51.51007974-50.78893882 177.91581445-117.23694077 231.89837831-145.56748507 8.44765301-4.42986713 14.83490314-7.72651207 18.4406078-9.78691498l6.1812095-3.29664579c4.22382651-2.26644351 9.16879395-2.3694634 13.49564117-0.20603979l8.96275415 4.53288703c31.52416855 15.45302417 191.82353603 95.60270791 251.47220828 154.3241986 67.06612381 66.03592237 80.56176416 134.44130731 81.0768653 137.32587186l2.06040289 413.8319795c0.1030199 12.87752014-8.24161239 24.41577749-20.6040314 28.33054348L510.96979856 805.875z m293.09235232-538.58939172c-2.57550403-10.0959755-16.99832593-59.64867225-65.82988175-107.75908631-47.28625324-46.66813221-175.23729052-113.21915488-221.802402-136.60473175-4.22382651-2.16342361-9.16879395-2.0604029-13.28960056 0.20604062h-0.10302072c-47.38927313 24.93087863-173.27990752 91.0698209-219.22689797 136.39869113-49.03759561 48.21343478-63.35739761 97.76613071-65.82988175 107.75908631l-1.54530258 380.14438733c0 5.66610837 3.70872537 10.81711643 9.06577404 12.56845879l276.60912754 87.87619584c5.76912908 1.85436309 11.95033859 1.85436309 17.71946685 0l276.60912754-87.87619584c5.46006858-1.75134238 9.16879395-6.79933054 9.16879394-12.56845879l-1.54530258-380.14438733zM516.01778589 608.48837549c32.03926967 0.1030199 62.73927658-12.4654389 85.50673242-35.02685412 22.56141522-22.25235471 35.23289475-52.64330109 35.12987403-84.37351109-0.1030199-31.73020916-12.98054003-62.01813565-35.64497517-84.16746963-15.45302417-14.93792303-34.61477371-25.54899967-55.4248449-30.59698701l-0.30906052-50.17081777 49.96477717-0.1030199c7.93255188 0.1030199 15.65906396-3.09060516 21.32517232-8.65369363s8.85973342-13.18658066 8.85973425-21.22215244c0-7.93255188-3.29664495-15.55604407-8.96275415-21.11913253-5.66610837-5.56308847-13.39262046-8.75671353-21.42819305-8.75671354l-49.96477716 0.1030199-0.20604062-83.24028891c0-7.93255188-3.29664495-15.55604407-8.96275333-21.11913254-5.66610837-5.66610837-13.39262046-8.75671353-21.42819305-8.75671353-7.93255188-0.1030199-15.65906396 3.09060516-21.32517316 8.65369364s-8.85973342 13.18658066-8.85973343 21.22215243l0.72114095 192.95675821c-20.81007203 5.15100805-39.86880166 15.76208468-55.21880512 30.80302762-22.66443511 22.25235471-35.33591465 52.64330109-35.23289476 84.47653016 0.1030199 31.73020916 12.98054003 62.12115555 35.64497516 84.27049034 22.87047574 22.56141522 53.67350254 35.02685412 85.81579212 34.82081434z m72.732233-118.06110242c0.1030199 18.64664841-7.31443167 36.57215671-20.70705212 49.65571665-27.91846308 27.40336193-72.62921228 27.50638267-100.65069607 0.20603981-13.39262046-12.98054003-21.01611264-30.80302762-21.01611182-49.44967605-0.1030199-18.64664841 7.41745157-36.57215671 20.70705212-49.65571664 13.39262046-13.18658066 31.42114866-20.60403223 50.17081695-20.50101151 38.22047919-0.30906052 71.39297021 32.3483302 71.49599094 69.74464774z"  horiz-adv-x="1024" />

    
    <glyph glyph-name="xinzeng" unicode="&#59001;" d="M512-64C264.6-64 64 136.6 64 384S264.6 832 512 832s448-200.6 448-448-200.6-448-448-448z m188.2 483.8H547.8V572.2c0 19.8-16.1 35.8-35.8 35.8-19.8 0-35.8-16-35.8-35.8v-152.3H323.8c-19.8 0-35.8-16.1-35.8-35.8 0-19.8 16-35.8 35.8-35.8h152.3V196c0-19.8 16.1-35.8 35.8-35.8 19.8 0 35.8 16 35.8 35.8V348.2H700c19.8 0 35.8 16.1 35.8 35.8 0.2 19.8-15.8 35.8-35.6 35.8z"  horiz-adv-x="1024" />

    
    <glyph glyph-name="wodehuanjing" unicode="&#58928;" d="M788.1984 716.21632H240.96256c-47.42144 0-78.1824-40.54016-78.1824-78.17728v-390.87616c0-45.00992 36.82816-78.17728 78.1824-78.17728h547.23584c37.6064 0 78.17728 36.86912 78.17728 78.17728l-0.4864 397.45536c0 36.40832-35.15904 71.59808-77.69088 71.59808z m-18.65728-229.04832l-117.22752-109.48096c-11.4432-10.69568-29.99296-10.69568-41.44128 0l-60.78464 56.77056-98.19648-160.47104c-5.23776-8.56576-14.96576-13.78816-25.44128-13.78816a34.56 34.56 0 0 0-2.03776 0.06656c-11.21792 0.72192-21.00736 7.39328-25.18528 17.13152l-42.09664 98.31936-56.49408-52.7616c-11.4432-10.69056-29.99296-10.69056-41.43616 0-11.45344 10.69056-11.45344 28.01152 0 38.70208l87.91552 82.10944c6.94784 6.50752 16.79872 9.31328 26.61376 7.45984 9.64096-1.84832 17.65376-8.09984 21.31968-16.64l36.06016-84.21888 87.12192 142.36672c4.52096 7.40352 12.50304 12.416 21.55008 13.54752 9.07264 1.1008 18.176-1.73568 24.61184-7.77728l67.19488-62.75584 96.50688 90.12736c11.44832 10.69056 29.99808 10.69056 41.4464 0 11.44832-10.69568 11.44832-28.01664 0-38.7072z m-59.32032-434.54464H318.98112c-21.30944 0-38.48192-17.664-38.48192-39.4752 0-21.92384 17.17248-39.59296 38.48192-39.59296h391.23968c21.14048 0 38.4256 17.66912 38.4256 39.59296 0.00512 21.8112-17.28 39.4752-38.4256 39.4752z m139.264 741.83168H179.69664c-52.38784 0-95.09888-43.86816-95.09888-97.8432l0.01024-488.54528c0-82.10432 31.8976-117.26336 78.17728-117.26336h703.5904c52.42368 0 78.13632 48.14336 78.13632 102.14912V696.61184c0.03584 53.97504-42.5984 97.8432-95.0272 97.8432z m55.97696-586.38848c0-56.18688-22.64576-78.17728-78.17216-78.17728H201.87648c-52.13696 0-78.1824 32.56832-78.1824 78.17728V677.13024c0 43.12576 32.14848 78.17728 78.1824 78.17728H827.2896c41.17504 0 78.17216-39.936 78.17216-78.17728v-469.06368z"  horiz-adv-x="1024" />

    
    <glyph glyph-name="zhongjianjianguanli" unicode="&#58913;" d="M989.867 110.933h-382.293c-10.24 30.72-34.133 51.2-61.44 61.44v68.267h307.2c37.547 0 68.267 30.72 68.267 68.267v416.427c0 37.547-30.72 68.267-68.267 68.267h-682.667c-37.547 0-68.267-30.72-68.267-68.267v-413.013c0-37.547 30.72-68.267 68.267-68.267h307.2v-68.267c-27.307-10.24-51.2-34.133-61.44-61.44h-382.293c-17.067 0-34.133-17.067-34.133-34.133 0-20.48 13.653-34.133 34.133-34.133h382.293c13.653-40.96 51.2-68.267 95.573-68.267s81.92 27.307 95.573 68.267h382.293c17.067 0 34.133 17.067 34.133 34.133s-17.067 30.72-34.133 30.72zM170.667 691.2c0 20.48 13.653 34.133 34.133 34.133h614.4c17.067 0 34.133-17.067 34.133-34.133v-238.933h-682.667v238.933zM204.8 312.32c-17.067 0-34.133 17.067-34.133 34.133v34.133h682.667v-34.133c0-20.48-17.067-34.133-34.133-34.133h-614.4zM512 42.667c-20.48 0-34.133 17.067-34.133 34.133 0 10.24 3.413 17.067 10.24 23.893 6.827 6.827 13.653 10.24 23.893 10.24 20.48 0 34.133-17.067 34.133-34.133s-13.653-34.133-34.133-34.133z"  horiz-adv-x="1024" />

    
    <glyph glyph-name="wodezuhu" unicode="&#58888;" d="M511.9803125 336.103125c80.6690625 0 143.6934375 79.640625 153.285 193.6621875 5.5753125 65.9503125-7.6978125 118.4484375-38.360625 151.8028125-26.484375 28.81875001-65.154375 43.423125-114.924375 43.42312499s-88.4409375-14.60625001-114.91406249-43.41374999c-30.673125-33.3459375-43.92-85.843125-38.36062501-151.813125 9.61875001-114.0225 72.643125-193.66124999 153.2746875-193.66125zM645.41 287.15812500000004c-6.403125 2.925-13.29375001 3.5446875-17.971875 3.5446875-8.060625 0-15.729375-1.78875001-21.57-5.008125-0.553125-0.28874999-54.5025-29.724375-93.89437501-29.724375-39.31875001 0-93.3628125 29.4375-93.87843749 29.724375-10.678125 5.88-28.3284375 6.58125001-39.57 1.4559375-16.81875001-7.68-164.2715625-76.6471875-164.27156249-131.94937501 0-82.72875001 153.81-112.1934375 297.72-112.19343749 143.9371875 0 297.7378125 29.4646875 297.73781249 112.19343749-0.0009375 55.303125-147.4828125 124.269375-164.3015625 131.95687501zM740.073125 523.4465625c-4.640625-55.17-19.7521875-104.20874999-42.6159375-144.67781249a96.675 96.675 0 0 1 23.266875-2.85c65.52 0 116.715 64.6828125 124.5140625 157.31437499 4.51875001 53.57625001-6.253125 96.22124999-31.1596875 123.30375-21.504375 23.4178125-52.9096875 35.285625-93.354375 35.285625-3.260625 0-6.345-0.196875-9.485625-0.346875 24.459375-45.2503125 34.3846875-102.34125001 28.8346875-168.0290625zM962.5709375 227.44500000000005c0 44.9128125-119.80875001 100.9359375-133.46625 107.188125-5.184375 2.3625-10.798125 2.87625001-14.5875 2.87625-6.55124999 0-12.796875-1.453125-17.5490625-4.0659375-0.290625-0.151875-20.2959375-10.940625-43.0471875-18.0384375 86.1909375-50.941875 130.1296875-104.2265625 130.79531251-158.9634375 46.2440625 14.3859375 77.8546875 37.2046875 77.85468749 71.0034375zM283.934375 523.4465625c4.63125001-55.17 19.7521875-104.20874999 42.6075-144.67781249a96.598125 96.598125 0 0 0-23.2584375-2.85c-65.52 0-116.713125 64.6828125-124.5140625 157.31437499-4.51875001 53.57625001 6.253125 96.22124999 31.160625 123.30375 21.50625001 23.4178125 52.9096875 35.285625 93.3534375 35.285625 3.253125 0 6.346875-0.196875 9.4875-0.346875-24.459375-45.2503125-34.3875-102.34125001-28.8375-168.0290625zM61.4375 227.44500000000005c0 44.9128125 119.7984375 100.9359375 133.456875 107.188125 5.19375001 2.3625 10.8 2.87625001 14.59687499 2.87625 6.5521875 0 12.795-1.453125 17.54906251-4.0659375 0.28125001-0.151875 20.2865625-10.940625 43.048125-18.0384375-86.2003125-50.941875-130.1296875-104.2265625-130.80468751-158.9634375C93.0378125 170.8275 61.4375 193.64625001000002 61.4375 227.44500000000005z"  horiz-adv-x="1024" />

    
    <glyph glyph-name="cloud-computing" unicode="&#58911;" d="M508.73046875 85.17736816000001H294.23669433c-41.08914185 0-79.73602295 16.0699768-109.02996826 45.35980225-29.28900146 29.29476929-45.35980224 67.94082641-45.35980224 109.02996826s16.07080078 79.73519898 45.35980224 109.0291443c29.29476929 29.28982544 67.94082641 45.35980224 109.02996827 45.35980224h35.19030761c6.91726685 0 13.42254638 2.94982911 18.10519409 8.03457641 4.57305908 5.08557129 6.912323 11.89819337 6.20205689 18.71081543-0.71520996 7.83187867-1.1164856 15.76345825-1.11648559 23.49563598 0 64.07144165 24.91369629 124.28009033 70.27349853 169.63906861 45.26092529 45.26092529 105.56762695 70.28009033 169.64401244 70.28009033 37.73226929 0 73.94100951-8.54214477 107.40179445-25.32156372 31.93066406-16.07162476 60.41134643-39.46508789 82.38098144-67.84277343 8.2331543-10.67623901 23.59368896-12.60845948 34.27075195-4.36871339 10.68118286 8.23727417 12.61422729 23.59286499 4.3744812 34.27569581-26.44464112 34.06723023-60.71951294 62.3435669-99.16204834 81.66577147-40.37887573 20.24258423-83.80645751 30.51177979-129.26678466 30.5117798-77.09106445 0-149.60577393-30.00585938-204.11828614-84.51589966-54.61715698-54.71768188-84.62219239-127.23156738-84.62219238-204.32345582v-1.42547607h-9.55810547c-54.10546875 0-105.06088257-21.15472412-143.50341797-59.7019043C112.28579712 344.62802123999995 91.03137207 293.57125854000003 91.03137207 239.56631469c0-54.00576782 21.15637207-105.06088257 59.70190429-143.50341796 38.44171143-38.44665529 89.49765015-59.7019043 143.50341798-59.7019043h214.49459839a24.3517456 24.3517456 0 0 1 24.41189575 24.40777588 24.3517456 24.3517456 0 0 1-24.41189575 24.40777588z m185.91833496 315.18429566c-52.88928223 0-95.91064453-43.01971435-95.91064453-95.90899658 0-52.88433838 43.0213623-95.90487671 95.91064454-95.90487671 52.88269043 0 95.90240479 43.02053833 95.90240477 95.90487671 0 52.88763427-43.01971435 95.90899658-95.90240477 95.90899658z m1e-8-145.53863525c-27.35925292 0-49.63046265 22.27120972-49.63046265 49.62963867 0 27.35678101 22.27203369 49.63623047 49.63046265 49.63623047 27.35595703 0 49.62963867-22.27944946 49.62963867-49.63623047 0-27.35842896-22.27285766-49.63046265-49.62963867-49.63046265z m210.93173217-17.8975525V375.34332276c16.88488769 9.35540771 28.27716065 27.35595703 28.27716064 48.10446167 0 30.30825805-24.61212158 54.92037964-54.92037963 54.92037963-14.74914551 0-28.1716919-5.7958374-38.03961182-15.35476684l-90.31173706 52.17407226c0.09887695 1.1164856 0.09887695 2.33761597 0.09887695 3.45492554 0 30.30743408-24.61129761 54.92037964-54.91955567 54.92037964-30.30743408 0-54.92037964-24.61212158-54.92037963-54.92037964 0-1.11730958 0-2.33843994 0.1005249-3.45574952l-91.73886108-52.98815917c-9.96514893 9.96762085-23.69174195 16.07080078-38.94763184 16.07080078-30.30825805 0-54.92449951-24.6178894-54.92449951-54.92614747 0-21.55682373 12.40905762-40.27340698 30.51177978-49.22177123v-135.98052979c-18.10272217-8.94836426-30.51177979-27.66082763-30.51177978-49.22424316 0-30.30743408 24.61624146-54.91790771 54.92449951-54.91790772 14.13363648 0 26.95056153 5.28826905 36.71383668 14.03393555l93.87130737-54.20928955c-0.10464477-1.11813354-0.10464477-2.34008789-0.10464478-3.45739746 0-30.30661011 24.6178894-54.91955566 54.92614746-54.91955566 30.30578614 0 54.91955566 24.61212158 54.91955566 54.91955566 0 1.11730958 0 2.33843994-0.10464477 3.45657349l92.55212402 53.39520264c9.66275024-8.23809815 22.17315674-13.32366943 35.80004883-13.32366944 30.30743408 0 54.91955566 24.61212158 54.91955566 54.92532349 0.10546875 20.74191284-11.2868042 38.74328614-28.17169189 48.10610961z m-81.46224975-44.34713745l-97.940094-56.54937744a54.89813232 54.89813232 0 0 1-30.41207886 9.15930176c-11.18875122 0-21.7652893-3.35769653-30.40631104-9.15847778l-100.2859497 57.87432861c-1.82839966 19.42108154-13.62771607 35.79428101-30.30825805 44.13867188V374.12054443c15.66375732 7.73217773 27.0552063 22.67990112 29.90121459 40.58322144l100.79022217 58.17095947a54.93191527 54.93191527 0 0 1 30.41125488-9.15188599c11.18380737 0 21.76116943 3.35687255 30.40795898 9.15188599l98.34631348-56.75125122c2.54278565-19.32220459 15.15701294-35.39300537 32.23883057-43.02053833v-133.94448852c-18.302948-8.03540039-31.31762695-25.72943115-32.74310303-46.58093262z m0 0"  horiz-adv-x="1024" />

    
    <glyph glyph-name="password" unicode="&#58924;" d="M260.80232811 500.57979011h109.23122407-109.23122407Zm390.90694428 0h109.23354148-109.23354148Zm109.23276901 0H260.80155564c-55.26518726 0-80.49124717-44.81250286-80.49124719-100.02871513v-300.08691787c0-55.26518726 25.22497845-100.02871513 80.49201966-100.02871514h500.14048576c55.2642603 0 80.49124717 44.81250286 80.49124718 100.02871514V400.55030251c0 55.21605778-25.22768211 100.02871513-80.49201965 100.02871512M560.88847351 214.39744377v-63.91877461c0-27.60799027-22.41162014-50.01428033-50.01868343-50.01428031-27.59910679 0-50.00987721 22.40713977-50.00987721 50.01428031v63.86879541c-29.75987721 17.35529995-50.01605701 49.26428318-50.01605701 86.17589949 0 55.26518726 44.76074695 100.02871513 100.02485276 100.02871514 55.27499771 0 100.02871513-44.76252366 100.02871513-100.02871514 0.00892875-36.91161633-20.25448037-68.82144928-50.008873-86.12568855M760.55657577 505.11808777h-87.91937828c0 100.18630027-74.05543899 181.69258117-165.08434295 181.69258117-91.02859497 0-165.08588791-81.5062809-165.08588791-181.69258117h-87.9155159c0 71.38668823 25.90444851 138.66102218 72.93928814 189.43356513 23.16787433 25.00798988 50.23119163 44.68210889 80.43640136 58.47320367C439.47143745 767.42497158 472.98686218 774.72721223 507.55208206 774.72721223c34.56521988 0 68.08041287-7.30178489 99.6308899-21.70271873 30.20629119-13.79109478 57.26790906-33.46521378 80.43408393-58.47320367 47.03120899-50.77146149 72.93928814-118.04672242 72.93928814-189.43356513Z"  horiz-adv-x="1024" />

    
    <glyph glyph-name="wodegongdan" unicode="&#58885;" d="M814.4 768H209.6c-38.4 0-72-28.8-72-62.4v-638.4c0-33.6 33.6-62.4 72-62.4h604.8c38.4 0 72 28.8 72 62.4V705.6c0 33.6-33.6 62.4-72 62.4z m-72-556.8c0-14.4-14.4-28.8-33.6-28.8H315.2c-19.2 0-33.6 14.4-33.6 28.8s14.4 28.8 33.6 28.8h398.4c14.4 0 28.8-14.4 28.8-28.8z m0 172.8c0-14.4-14.4-28.8-33.6-28.8H315.2c-19.2 0-33.6 14.4-33.6 28.8s14.4 28.8 33.6 28.8h398.4c14.4 0 28.8-14.4 28.8-28.8z m-33.6 144H315.2c-19.2 0-33.6 14.4-33.6 28.8s14.4 28.8 33.6 28.8h398.4c19.2 0 33.6-14.4 33.6-28.8-4.8-14.4-19.2-28.8-38.4-28.8z"  horiz-adv-x="1024" />

    
    <glyph glyph-name="delete3" unicode="&#58930;" d="M512 864C246.4 864 32 649.6 32 384s214.4-480 480-480 480 214.4 480 480S777.6 864 512 864m201.6-681.6c-12.8-12.8-35.2-12.8-48 0L512 336l-153.6-153.6c-12.8-12.8-35.2-12.8-48 0-12.8 12.8-12.8 35.2 0 48l153.6 153.6-153.6 153.6c-12.8 12.8-12.8 35.2 0 48 12.8 12.8 35.2 12.8 48 0l153.6-153.6 153.6 153.6c12.8 12.8 35.2 12.8 48 0 12.8-12.8 12.8-35.2 0-48L560 384l153.6-153.6c16-12.8 16-35.2 0-48m0 0z"  horiz-adv-x="1024" />

    
    <glyph glyph-name="submit" unicode="&#59301;" d="M873.40624973 466.96874973c-15.46874973 0-28.12499973-12.65625001-28.12499974-28.12499972v-357.18749974c0-14.06250027-11.24999973-26.71875027-26.71875026-26.71875027H202.62499973c-14.06250027 0-26.71875027 11.24999973-26.71874946 26.71875027V696.1875c0 14.06250027 11.24999973 26.71875027 26.71874946 26.71875027h386.71875054c15.46874973 0 28.12499973 12.65625001 28.12499974 28.12499974s-12.65625001 28.12499973-28.12499974 28.12499972H202.62499973c-44.99999973 0-82.96874973-36.56249973-82.96874972-82.96874973v-613.12500027c0-44.99999973 36.56249973-82.96874973 82.96874972-82.96874974h615.9375c44.99999973 0 82.96874973 36.56249973 82.96875054 82.96874974V438.84375001c0 15.46874973-12.65625001 28.12499973-28.12500054 28.12499972zM340.43750027 531.65625001c-11.24999973 9.84375027-29.53125001 9.84375027-39.37500027-2.81249974-9.84375027-11.24999973-9.84375027-29.53125001 2.81249973-39.37500028l178.59375026-158.90624972 1.40625028-1.40625028 1.40624946-1.40625026c1.40625027 0 1.40625027-1.40625027 2.81250054-1.40624946 0 0 1.40625027 0 1.40624946-1.40625027 1.40625027 0 2.81249973-1.40625027 2.81250054-1.40625027h14.06249946c1.40625027 0 2.81249973 0 4.21875 1.40625027 0 0 1.40625027 0 1.40625027 1.40625027 1.40625027 0 1.40625027 1.40625027 2.81249973 1.40624946l1.40625028 1.40625026 1.40625026 1.40625028L863.56250027 656.81249973c11.24999973 11.24999973 11.24999973 28.12499973 1.40624946 39.37500027-11.24999973 11.24999973-28.12499973 11.24999973-39.37499946 1.40625027L497.93749973 388.21875001 340.43750027 531.65625001z"  horiz-adv-x="1024" />

    
    <glyph glyph-name="computer" unicode="&#59044;" d="M822.75613817 723.00669653h-621.51227634C154.51743872 723.00669653 116.4921875 684.98144531 116.4921875 638.25502222v-395.50781251c0-46.7264231 38.02525123-84.75167433 84.75167433-84.75167433h282.50557981v-84.75167355H342.49665212a28.25055836 28.25055836 0 0 1 0-56.50111596h339.00669577a28.25055836 28.25055836 0 0 1-1e-8 56.50111596H540.25055836V157.99553537999998h282.50557981c46.7264231 0 84.75167433 38.02525123 84.75167433 84.75167433v395.5078125c0 46.7264231-38.02525123 84.75167433-84.75167433 84.75167432z m28.25055836-480.25948682c0-15.53780714-12.71275123-28.25055836-28.25055836-28.2505576h-621.51227635a28.25055836 28.25055836 0 0 0-28.25055835 28.2505576V270.99776807h678.01339307v-28.25055835zM172.99330347 327.49888404V638.25502222a28.25055836 28.25055836 0 0 0 28.25055836 28.25055836h621.51227635a28.25055836 28.25055836 0 0 0 28.25055835-28.25055837V327.49888404H172.99330347z"  horiz-adv-x="1024" />

    
    <glyph glyph-name="tenant" unicode="&#58936;" d="M270.38098144 347.56549071999996c26.84591675 11.50515747 47.93966675 15.34075927 47.93966676 24.92852784 0 17.25897217-17.2581482 24.9293518-36.43450929 36.43533324-24.92852783 15.34075927-59.4456482 47.93966675-59.44564819 109.30352784 0 53.69348145 28.76412964 90.12799073 72.86901855 109.30435181 11.50598145 5.75216675 34.51712036 13.42254638 24.92935182 36.43450927-5.75299073 15.34075927-38.35272217 11.50515747-59.44647218 0-49.85787964-24.9293518-84.375-78.62200927-84.375-143.82147216 0-59.4456482 28.76495362-103.55053711 72.86984254-132.31466676C147.65325927 345.64810179999995 90.125 259.35488891 90.125 142.38098144000003c0-13.42337036 11.50598145-24.9293518 24.9293518-24.9293518s24.92852783 11.50598145 24.92852784 24.92935181C138.06549073 259.35488891 210.93615722 320.71875 270.38098144 347.56549071999996z m508.16738892 38.35189819c44.10488891 30.68234253 70.95162964 72.86984253 70.95162964 132.31549073 0 67.1168518-34.51629638 120.80950928-84.375 145.73886108-21.09375 11.50515747-53.69348145 15.34075927-59.4456482 1e-8-9.58859253-23.01113891 11.50515747-30.68234253 23.01113892-36.43450928 44.10488891-19.17636109 70.95162964-55.61087036 70.95162964-109.30435181 0-59.4456482-36.43450928-93.96276855-59.44647216-109.30352784-17.2581482-11.50598145-36.43450928-19.17636109-36.43450929-36.43533324 0-9.58776855 21.09375-13.42254638 47.94049073-24.92852783C811.1481018 320.71875 882.09973144 257.4375 882.09973144 142.38098144000003c0-13.42337036 11.50515747-24.9293518 23.01113892-24.9293518 13.42254638 0 23.01113891 11.50598145 23.01113891 24.92935181 5.75299073 116.97390747-49.85787964 203.26629638-149.57363891 243.53640746z m-162.99700927-19.17553711c53.69265747 34.51629638 88.20977783 93.96276855 88.20977782 162.99700929 0 107.38613891-86.29238891 193.67852783-193.67852782 193.67852782S316.40325928 637.125 316.40325928 529.73886109c0-67.1168518 34.51712036-128.48071289 88.21060181-162.99700929-124.64511109-44.10571289-218.60870362-164.91522217-218.60870362-308.73587036 0-13.42337036 11.50598145-24.9293518 24.92935181-24.9293518 13.42337036 0 24.9293518 11.50598145 24.92935181 24.92935181 0 153.40841675 124.64428711 278.05352783 278.05352782 278.05352783s278.0543518-124.64511109 278.05435182-278.05352784c0-13.42337036 11.50515747-24.9293518 24.92852783-24.9293518 13.42337036 0 24.9293518 11.50598145 24.9293518 24.92935181-3.8356018 143.8206482-97.79837036 264.63015747-226.27825927 308.73504638zM512 384c-80.5393982 0-143.8206482 65.19863891-143.8206482 143.8206482 0 80.54022217 65.19863891 143.82147217 143.8206482 143.82147216 80.5393982 0 143.8206482-65.19863891 143.8206482-143.82147216S592.5393982 384 512 384z"  horiz-adv-x="1024" />

    
    <glyph glyph-name="wodezichan" unicode="&#58882;" d="M514.41167068 772.62968445c-215.32773972 0-390.54928779-175.20532608-390.54928779-390.55160523 0-215.35400391 175.22154808-390.55624009 390.55160522-390.55624008 215.34705162 0 390.54928779 175.20223618 390.54928779 390.55624008 0 215.34627915-175.20223618 390.55160523-390.55160522 390.55160523z m122.75959968-357.82101631c16.57502175 0 30.03928184-13.44958306 30.03928186-30.03696442 0-16.5796566-13.4642601-30.03696442-30.03928186-30.03696442H547.08895874v-60.09092331h90.08462906c16.57502175 0 30.03928184-13.45653534 30.03928185-30.03619194s-13.4642601-30.03928184-30.03928185-30.03928184H547.08895874v-90.11552811c-0.06488799-16.61441803-13.45190048-30.04159927-30.04623413-30.04159927-16.5796566 0-30.04159927 13.42718124-30.04159928 30.04159927V234.56834220999997h-90.17887115c-16.5796566 0-30.03619194 13.45885277-30.03619195 30.03928184s13.45653534 30.03619194 30.03696443 30.03619194h90.17809867v60.09092331h-90.17887115c-16.5796566 0-30.03619194 13.45653534-30.03619195 30.03928185 0 16.58506394 13.45653534 30.03696442 30.03696443 30.03696442h90.17809867v17.86737441l-111.19794845 111.1964035c-11.73005105 11.73005105-11.73005105 30.7677269 0 42.48773576 11.69606209 11.71305656 30.76231957 11.71305656 42.47846603 0l98.89163018-98.9008999L615.94594192 586.2342681800001c11.73082352 11.72232627 30.76540947 11.72232627 42.48155595 0 11.73005105-11.71073914 11.73005105-30.74841499 0-42.46919631L547.08586884 432.41340066v-17.60473252H637.17204284z"  horiz-adv-x="1024" />

    
    <glyph glyph-name="take-effect" unicode="&#58905;" d="M512 779.5078125C294.47070311 779.5078125 116.4921875 601.5292968900001 116.4921875 384s177.97851563-395.5078125 395.5078125-395.5078125 395.5078125 177.97851563 395.5078125 395.5078125S729.52929689 779.5078125 512 779.5078125z m0-741.57714844c-190.33813477 0-346.06933594 155.73120117-346.06933594 346.06933594S321.66186523 730.06933594 512 730.06933594s346.06933594-155.73120117 346.06933594-346.06933594-155.73120117-346.06933594-346.06933594-346.06933594zM749.3046875 554.56274414c-12.35961914 9.88769531-24.71923828 7.41577148-34.60693359 0l-276.85546875-286.74316407L306.83032227 398.83154297c-9.88769531 9.88769531-24.71923828 9.88769531-34.6069336 0l-2.47192383-2.47192383c-9.88769531-9.88769531-9.88769531-24.71923828 0-32.13500976l148.31542969-148.31542969c9.88769531-9.88769531 24.71923828-9.88769531 34.60693359 0l296.63085938 304.04663086c12.35961914 9.88769531 12.35961914 24.71923828 0 34.60693359z"  horiz-adv-x="1024" />

    
    <glyph glyph-name="normal" unicode="&#59635;" d="M511.01123047 753.140625C305.84155273 753.140625 142.859375 587.85131836 142.859375 384s165.28930664-369.140625 369.140625-369.140625 369.140625 165.20690918 369.140625 369.140625c0 203.85131836-164.9597168 369.140625-370.12939453 369.140625m235.90393067-269.60449219S521.97009278 245.57226562000005 493.21337891 216.81555175000005c-20.35217286-20.35217286-45.64819336-13.34838867-56.35986329-2.7191162l-160.67504882 147.07946778c-14.83154297 15.49072266-14.83154297 40.78674317 0 56.27746581 14.83154297 15.49072266 38.72680664 15.49072266 53.55834961 0l133.07189942-119.47631836c0 0.24719239 230.5480957 241.91894531 230.54809569 241.91894531 14.83154297 15.49072266 38.72680664 15.49072266 53.55834962 0 14.74914551-15.57312012 14.74914551-40.78674317 0-56.35986328"  horiz-adv-x="1024" />

    
    </font>
</defs>
</svg>
